<?xml version="1.0" encoding="UTF-8"?>
<svg version="1.1" xmlns="http://www.w3.org/2000/svg" width="1024" height="1024">
<path d="M0 0 C1.14484612 -0.0076664 1.14484612 -0.0076664 2.31282043 -0.01548767 C4.82646606 -0.02934618 7.33983642 -0.02842999 9.85351562 -0.02612305 C11.60559185 -0.03001153 13.35766714 -0.03434652 15.10974121 -0.03910828 C18.77810729 -0.04656206 22.44637711 -0.04628495 26.11474609 -0.04101562 C30.81238591 -0.0352167 35.50963201 -0.05216618 40.20720673 -0.0753603 C43.82405902 -0.09009978 47.44081647 -0.09096914 51.05769348 -0.08785057 C52.78962485 -0.0883635 54.52156156 -0.09359588 56.25346375 -0.10366249 C58.67574603 -0.11601633 61.097261 -0.10924239 63.51953125 -0.09765625 C64.23240799 -0.10529999 64.94528473 -0.11294373 65.67976379 -0.12081909 C70.05762669 -0.07459801 72.75546284 0.63963771 76.25976562 3.2746582 C79.78116383 6.95261625 81.26839262 10.48499444 82.81835938 15.30200195 C83.15608116 16.3341256 83.15608116 16.3341256 83.50062561 17.38710022 C83.98697443 18.87717105 84.46853763 20.36881067 84.94580078 21.86181641 C85.97808199 25.09046202 87.03364318 28.31135036 88.08792114 31.53286743 C88.64154342 33.22501607 89.19399636 34.91754768 89.74533081 36.61044312 C92.39665819 44.73992546 95.16120848 52.8287733 97.9463501 60.91320801 C102.73649177 74.81960714 107.43871637 88.75293816 112.06890869 102.71334839 C115.44737487 112.89614992 118.89078291 123.05386173 122.39450073 133.19421387 C127.78966684 148.81232674 132.9508836 164.49949392 138.04394531 180.21850586 C141.77546493 191.73296424 145.54801224 203.23232469 149.38476562 214.7121582 C149.75518478 215.82062103 149.75518478 215.82062103 150.13308716 216.95147705 C151.36495316 220.63667171 152.59794615 224.32148792 153.83154297 228.00610352 C155.89153074 234.16045419 157.9423396 240.31786156 159.99359131 246.47512817 C161.21600652 250.14412331 162.43910491 253.81289071 163.66210938 257.48168945 C164.21924143 259.15307512 164.77637015 260.8244619 165.33349609 262.49584961 C165.63664734 263.40530334 165.93979858 264.31475708 166.25213623 265.25177002 C174.23010254 289.18566895 182.20806885 313.11956787 190.18603516 337.0534668 C190.61175056 338.33059792 190.61175056 338.33059792 191.04606628 339.63352966 C191.57775788 341.22862444 192.10942581 342.82372709 192.6410675 344.4188385 C193.82728263 347.97782031 195.01386117 351.53667982 196.20141602 355.09521484 C198.35773015 361.55803424 200.50878853 368.02251714 202.64802551 374.49101257 C203.73428627 377.77453617 204.82285041 381.05729414 205.91159058 384.33999634 C206.42341593 385.88533317 206.93415213 387.4310313 207.44363403 388.97714233 C214.29128614 413.04124783 214.29128614 413.04124783 230.25976562 431.2746582 C232.86816789 432.56619719 235.46204577 433.48511763 238.25976562 434.2746582 C239.29101562 434.5840332 240.32226562 434.8934082 241.38476562 435.2121582 C245.55670817 435.30285261 247.13608101 433.99957457 250.25976562 431.2746582 C261.43152342 418.6827617 259.41159837 396.1048166 259.40020752 380.35845947 C259.40317864 379.04258402 259.40614976 377.72670856 259.40921092 376.37095809 C259.41717082 372.76617587 259.41906421 369.16141366 259.41980839 365.5566237 C259.42167817 361.65070468 259.42923426 357.74479559 259.4359436 353.83888245 C259.44944325 345.32484225 259.45553692 336.81080681 259.45995426 328.2967577 C259.46272783 322.97430384 259.46696685 317.65185176 259.47145844 312.32939911 C259.48363429 297.57060485 259.4939407 282.81181201 259.49733353 268.05301285 C259.49755309 267.11120363 259.49777266 266.16939441 259.49799888 265.19904552 C259.49821716 264.25511877 259.49843543 263.31119202 259.49866033 262.33866143 C259.49910378 260.42621374 259.49955034 258.51376605 259.5 256.60131836 C259.50022143 255.65269896 259.50044286 254.70407955 259.500671 253.7267141 C259.50462426 238.33504438 259.52210188 222.94342184 259.54535952 207.55177036 C259.56908675 191.72089677 259.5815358 175.89004688 259.58270144 160.05915523 C259.5836168 151.18177761 259.58933509 142.30446171 259.60752106 133.42710114 C259.62293974 125.87470219 259.62803163 118.32238411 259.61978295 110.76997241 C259.61588432 106.92043792 259.61676786 103.07106621 259.6308403 99.2215519 C259.64597982 95.04189195 259.63769074 90.86259666 259.6272583 86.68292236 C259.63531471 85.47620101 259.64337111 84.26947966 259.65167165 83.026191 C259.59739617 73.71248795 258.7671844 63.48558171 252.25976562 56.2746582 C246.11196933 52.28253557 239.94217943 51.35481795 232.79492188 50.58520508 C227.13329548 49.82807105 224.10065184 48.61170753 220.25976562 44.2746582 C218.16227657 38.51861782 217.9370585 33.04614293 218.00976562 26.9621582 C218.0179834 26.13055176 218.02620117 25.29894531 218.03466797 24.44213867 C218.31776942 8.81067678 218.31776942 8.81067678 221.58789062 4.5402832 C226.50979738 0.11553875 231.35500014 0.12638549 237.64779663 0.13421631 C238.39427102 0.13124519 239.1407454 0.12827406 239.90984023 0.12521291 C242.41239833 0.11653782 244.91490852 0.11501868 247.41748047 0.11352539 C249.21126915 0.10889644 251.00505684 0.10387167 252.79884338 0.09848022 C257.67282051 0.08536316 262.54678387 0.07891282 267.42077589 0.07446957 C270.46550272 0.07153821 273.51022578 0.06743332 276.55495071 0.06296539 C286.08036703 0.04929336 295.60577475 0.03962481 305.13120019 0.0357635 C316.12883279 0.03128091 327.12634122 0.01372243 338.12393606 -0.01523709 C346.62425504 -0.03684429 355.12453905 -0.04694024 363.6248852 -0.04827762 C368.70223617 -0.04932617 373.77947037 -0.055245 378.85679245 -0.07309723 C383.63220011 -0.08956164 388.407403 -0.09174134 393.1828289 -0.08295822 C394.93477997 -0.08218702 396.68674198 -0.08654151 398.43866539 -0.09641647 C400.83194358 -0.10911477 403.22449415 -0.10327109 405.61776733 -0.09283447 C406.30960534 -0.10089088 407.00144336 -0.10894728 407.71424615 -0.11724782 C412.27524136 -0.07078879 415.38610475 0.87994239 419.25976562 3.2746582 C424.28947389 10.03874863 423.508279 17.49498344 423.57226562 25.5871582 C423.60126953 26.79823242 423.63027344 28.00930664 423.66015625 29.25708008 C423.71819859 37.41426183 423.10706279 41.95328651 417.61132812 48.1262207 C413.80848065 49.98342529 409.80553086 50.17987945 405.63476562 50.6496582 C394.6633545 51.92219894 394.6633545 51.92219894 385.25976562 57.2746582 C372.7023986 75.16743234 378.19002788 108.87823836 378.22094727 129.79321289 C378.2227535 132.06441108 378.22445221 134.33560936 378.22605228 136.60680771 C378.24961249 163.03888045 378.33971417 189.47083321 378.43603835 215.90272295 C378.44342964 217.93460013 378.45076976 219.96647749 378.45809293 221.99835491 C378.50409523 234.76112549 378.55065202 247.5238939 378.59910488 260.28665543 C378.61010327 263.18597664 378.62109643 266.08529787 378.63208008 268.98461914 C378.63617253 270.06466696 378.63617253 270.06466696 378.64034767 271.16653392 C378.68482989 282.93442035 378.72538195 294.70231711 378.76441824 306.47022274 C378.80497417 318.67609419 378.84909237 330.88194879 378.89664418 343.08779502 C378.9230672 349.89285704 378.94798602 356.69791678 378.96883965 363.50299835 C378.98853099 369.86969524 379.01271016 376.23635975 379.0402565 382.60302734 C379.04954156 384.92487754 379.05724662 387.24673472 379.06318474 389.56859589 C379.09553709 401.84370607 379.28336648 414.03392222 380.25976562 426.2746582 C388.83709138 428.72271802 397.29573322 428.56598142 406.13085938 428.5402832 C407.77881426 428.54163411 409.42676875 428.54357817 411.07472229 428.54608154 C414.52340501 428.54902022 417.97198374 428.54478076 421.4206543 428.53540039 C425.78725594 428.52408769 430.15360941 428.53052103 434.52020168 428.54254532 C437.92568231 428.54986771 441.33110685 428.54742781 444.73658943 428.54228973 C446.34333388 428.54097745 447.95008382 428.54251343 449.55682182 428.54724884 C458.09529505 428.56687328 466.51250652 428.28958581 475.00610352 427.36743164 C475.74363326 427.28789371 476.48116301 427.20835579 477.24104214 427.12640762 C488.50871537 425.78225403 497.96729416 421.77574947 505.25976562 412.8996582 C515.55991528 398.03403681 521.12695751 380.27452997 525.69726562 362.9465332 C525.91229736 362.13168457 526.1273291 361.31683594 526.34887695 360.47729492 C526.7329766 358.98320843 527.10142343 357.48496029 527.44995117 355.98217773 C528.74717283 350.81444485 530.53240885 347.952899 534.25976562 344.2746582 C538.40876353 342.10080008 542.35057957 341.96786736 546.93945312 341.97387695 C547.6704422 341.96959183 548.40143127 341.9653067 549.15457153 341.96089172 C550.69597339 341.95516791 552.23740225 341.95463376 553.77880859 341.95898438 C556.12059305 341.96213911 558.46110631 341.9386809 560.80273438 341.91333008 C562.30663905 341.91105614 563.81054708 341.91035403 565.31445312 341.91137695 C566.00634735 341.90216721 566.69824158 341.89295746 567.41110229 341.88346863 C572.46796577 341.93090285 575.84960566 342.97159 580.25976562 345.2746582 C583.42389392 349.38802498 584.46070839 353.27254713 584.20637512 358.39454651 C584.16807681 359.20173347 584.1297785 360.00892042 584.09031963 360.84056759 C584.01721176 362.15094415 584.01721176 362.15094415 583.94262695 363.48779297 C583.89437932 364.41327973 583.84613169 365.3387665 583.796422 366.29229832 C583.18234381 377.49865447 582.26990237 388.68123846 581.33398438 399.86450195 C581.24060099 400.98514101 581.1472176 402.10578007 581.05100441 403.26037788 C580.55839663 409.16162705 580.06061045 415.06241404 579.55883789 420.96289062 C579.04348232 427.03750078 578.54814966 433.11358157 578.05684185 439.19017696 C577.67276601 443.89318016 577.27344744 448.59479994 576.86997414 453.296175 C576.68037258 455.53754913 576.49660829 457.77942523 576.3188839 460.02177238 C576.07019664 463.14276778 575.79984491 466.26117156 575.52416992 469.37988281 C575.42186317 470.75675262 575.42186317 470.75675262 575.31748962 472.16143799 C574.73337675 478.40643927 573.2523383 482.54828695 568.46384025 486.91082877 C565.72322926 488.60665426 564.03428214 488.65503159 560.82359695 488.66500568 C559.15747136 488.68104059 559.15747136 488.68104059 557.45768666 488.69739944 C556.23747343 488.6939161 555.01726019 488.69043276 553.7600708 488.68684387 C552.46372798 488.69490183 551.16738515 488.70295979 549.83175921 488.71126193 C546.23049827 488.73321119 542.62942375 488.73647745 539.02810478 488.73671615 C535.14518696 488.74020259 531.26235602 488.7608736 527.37948608 488.77938843 C519.77062619 488.81290345 512.16180951 488.83036332 504.55288842 488.84231589 C495.69217743 488.85675542 486.83153662 488.88634497 477.97086725 488.91640886 C462.15833266 488.9694757 446.34579604 489.0077112 430.53320312 489.03808594 C415.19135367 489.06756098 399.84959501 489.10897366 384.5078125 489.16308594 C367.80598232 489.22197771 351.10415583 489.27453277 334.40227199 489.31581324 C332.62048387 489.32022256 330.83869576 489.32463356 329.05690765 489.32904625 C328.18022624 489.33120682 327.30354482 489.33336739 326.4002973 489.33559344 C320.22540081 489.35119335 314.05052701 489.37113431 307.8756485 489.39261818 C300.34634783 489.41862159 292.81707087 489.43717752 285.28773025 489.44637034 C281.44676892 489.45122223 277.60588665 489.45925775 273.76495743 489.4760685 C269.59907029 489.49417986 265.43332142 489.49656559 261.26739502 489.49739075 C260.05610467 489.50506102 258.84481432 489.51273129 257.59681821 489.520634 C251.4183925 489.50769062 246.19932396 488.9309427 240.25976562 487.2746582 C239.59976562 487.6046582 238.93976563 487.9346582 238.25976562 488.2746582 C235.98030639 488.3779373 233.69773964 488.41421632 231.41595459 488.42182922 C230.70385747 488.42550591 229.99176035 488.4291826 229.25808454 488.4329707 C226.85987468 488.44402824 224.46170812 488.44785488 222.06347656 488.45166016 C220.34879925 488.45792327 218.6341233 488.46456993 216.91944885 488.47157288 C212.25196263 488.48899722 207.58448667 488.49953863 202.91697598 488.50777841 C200.00191252 488.51292573 197.08685227 488.5190016 194.17179108 488.52528954 C185.05429748 488.54434598 175.93681201 488.55857591 166.81930232 488.5669015 C156.28911313 488.57667533 145.75913406 488.60299676 135.22901893 488.6434024 C127.09391848 488.6735484 118.95887831 488.68836895 110.82372308 488.69168252 C105.96315463 488.69403482 101.10281055 488.70301854 96.24230194 488.72814369 C91.66878427 488.7514028 87.09563902 488.75566639 82.52207756 488.74538231 C80.84429881 488.7448863 79.16650186 488.75122583 77.48877907 488.76493835 C75.19590988 488.78262858 72.90438139 488.7755665 70.61151123 488.7624054 C69.32912945 488.76479375 68.04674767 488.7671821 66.72550583 488.76964283 C62.60843579 488.18163385 60.47143327 486.87363645 57.25976562 484.2746582 C53.0921032 478.02316456 54.07649668 470.1601494 54.07226562 462.8996582 C54.06001953 461.80137695 54.04777344 460.7030957 54.03515625 459.5715332 C54.00986423 445.50916991 54.00986423 445.50916991 58.23242188 439.4387207 C62.46650503 436.41203416 66.64593103 435.64107425 71.69726562 434.6496582 C81.78883865 433.10756118 81.78883865 433.10756118 89.63867188 427.35668945 C91.61853248 420.71979824 88.89903422 413.55260138 86.82226562 407.2121582 C86.49633423 406.21091919 86.49633423 406.21091919 86.16381836 405.18945312 C85.09812477 401.52931656 85.09812477 401.52931656 82.25976562 399.2746582 C82.56914063 398.4084082 82.56914063 398.4084082 82.88476562 397.5246582 C83.35705028 394.69095027 82.54621778 393.79102158 81.25976562 391.2746582 C80.92640741 389.95957839 80.63920458 388.63216392 80.39257812 387.2980957 C79.14338197 381.33080055 77.12323935 375.6542871 75.13476562 369.8996582 C74.39884023 367.76827566 73.66687376 365.63552081 72.93945312 363.5012207 C72.61702637 362.56874512 72.29459961 361.63626953 71.96240234 360.67553711 C71.25976562 358.2746582 71.25976562 358.2746582 71.25976562 355.2746582 C70.59976562 354.9446582 69.93976563 354.6146582 69.25976562 354.2746582 C69.25976562 352.2946582 69.25976562 350.3146582 69.25976562 348.2746582 C67.93976563 348.9346582 66.61976563 349.5946582 65.25976562 350.2746582 C64.92976563 349.2846582 64.59976562 348.2946582 64.25976562 347.2746582 C60.29976563 347.2746582 56.33976562 347.2746582 52.25976562 347.2746582 C52.25976562 347.6046582 52.25976562 347.9346582 52.25976562 348.2746582 C46.32951759 349.24506243 41.19586229 349.1678209 35.25976562 348.2746582 C35.25976562 347.9446582 35.25976562 347.6146582 35.25976562 347.2746582 C9.84976563 346.9446582 -15.56023437 346.6146582 -41.74023438 346.2746582 C-42.07023438 347.2646582 -42.40023437 348.2546582 -42.74023438 349.2746582 C-44.39023437 348.9446582 -46.04023438 348.6146582 -47.74023438 348.2746582 C-47.74023438 347.9446582 -47.74023438 347.6146582 -47.74023438 347.2746582 C-50.71023438 347.2746582 -53.68023437 347.2746582 -56.74023438 347.2746582 C-58.64814377 353.33369016 -60.55009085 359.39455313 -62.44702148 365.45703125 C-63.09032479 367.51025299 -63.73513037 369.56300478 -64.3815918 371.61523438 C-67.64626573 381.98254002 -70.8569061 392.3516525 -73.63867188 402.8605957 C-73.84115036 403.6224971 -74.04362885 404.3843985 -74.25224304 405.16938782 C-77.41543564 416.88048459 -77.41543564 416.88048459 -74.74023438 428.2746582 C-69.67124716 432.22947199 -63.47724601 432.59380627 -57.30859375 433.55981445 C-51.31111597 434.61899166 -46.48531223 436.3521773 -41.74023438 440.2746582 C-37.44241341 446.72138965 -38.52091997 454.60370818 -38.49023438 462.0871582 C-38.46960938 463.33303711 -38.44898438 464.57891602 -38.42773438 465.86254883 C-38.39888166 472.66097066 -38.41165716 478.25384941 -41.74023438 484.2746582 C-45.97979561 487.68309006 -48.82596984 488.77484922 -54.23658752 488.77586365 C-55.52497528 488.78569778 -56.81336304 488.79553192 -58.14079285 488.80566406 C-59.55618553 488.79629344 -60.97157556 488.78651418 -62.38696289 488.77636719 C-63.88711046 488.78015283 -65.38725452 488.7856549 -66.88739014 488.79273987 C-70.95143977 488.80667869 -75.01506531 488.79553652 -79.07909131 488.77902865 C-83.33552191 488.76515916 -87.59192836 488.7716403 -91.84837341 488.77516174 C-98.99460673 488.77786207 -106.14067192 488.76440255 -113.28686523 488.74121094 C-121.54623652 488.71459209 -129.80532692 488.71285797 -138.06472641 488.7245993 C-146.01506488 488.73538133 -153.96530184 488.72918735 -161.91563225 488.71504402 C-165.29711243 488.70928892 -168.67851821 488.70936313 -172.05999947 488.71410942 C-176.04180003 488.71888459 -180.02329328 488.70875538 -184.0050354 488.68715477 C-185.46551922 488.68159443 -186.92603261 488.68111472 -188.38651848 488.68610764 C-190.38130743 488.69207157 -192.37612621 488.67770668 -194.37086487 488.66233826 C-196.04467397 488.65869341 -196.04467397 488.65869341 -197.7522974 488.65497494 C-201.1472908 488.22284641 -203.00735441 487.30498953 -205.74023438 485.2746582 C-208.71479958 480.77762649 -209.19610456 476.727802 -209.17382812 471.4621582 C-209.17906998 470.7302124 -209.18431183 469.9982666 -209.18971252 469.24414062 C-209.19610435 467.70452131 -209.19483268 466.16485297 -209.1862793 464.62524414 C-209.17775717 462.28092966 -209.20658464 459.93904576 -209.23828125 457.5949707 C-209.23989336 456.09236726 -209.23931555 454.58975954 -209.23632812 453.0871582 C-209.2475621 452.39323975 -209.25879608 451.69932129 -209.27037048 450.984375 C-209.1992052 445.97079385 -207.85829886 443.1481468 -204.74023438 439.2746582 C-200.79714556 436.22460344 -196.36272383 435.24658587 -191.61523438 434.0246582 C-180.47218635 430.89716174 -172.25122235 426.74171094 -166.31054688 416.39575195 C-160.9943324 406.72466138 -160.9943324 406.72466138 -158.74023438 396.2746582 C-158.08023438 396.2746582 -157.42023438 396.2746582 -156.74023438 396.2746582 C-156.61184174 395.39269272 -156.4834491 394.51072723 -156.35116577 393.60203552 C-155.79375526 390.56615443 -155.02752629 387.92618072 -153.96533203 385.03662109 C-153.60011948 384.03492386 -153.23490692 383.03322662 -152.85862732 382.00117493 C-152.46119827 380.92740097 -152.06376923 379.85362701 -151.65429688 378.74731445 C-151.24127823 377.61815109 -150.82825958 376.48898773 -150.40272522 375.3256073 C-149.06147021 371.66109607 -147.71327704 367.99917724 -146.36523438 364.3371582 C-144.52706749 359.3241291 -142.69498795 354.30886834 -140.86132812 349.29418945 C-140.41217545 348.067435 -139.96302277 346.84068054 -139.5002594 345.57675171 C-135.67986598 335.13485709 -131.93585909 324.66817669 -128.25244141 314.17724609 C-125.44081511 306.18454271 -122.52649121 298.23266439 -119.58959961 290.28540039 C-117.75782623 285.3274512 -115.94046325 280.36431249 -114.12695312 275.3996582 C-113.82673248 274.57808228 -113.52651184 273.75650635 -113.2171936 272.91003418 C-111.95898284 269.46659806 -110.70109561 266.0230438 -109.44326782 262.57946777 C-105.86797307 252.79348453 -102.27965416 243.01326229 -98.63354492 233.25341797 C-94.9882008 223.49239833 -91.47900754 213.69884741 -88.11523438 203.8371582 C-83.83113361 191.28046058 -79.34525689 178.80247904 -74.80273438 166.3371582 C-74.45691315 165.38803558 -74.11109192 164.43891296 -73.75479126 163.46102905 C-70.37932898 154.20205191 -66.99191566 144.94751608 -63.58398438 135.70043945 C-59.52077037 124.67276064 -55.48523356 113.64361321 -51.67773438 102.5246582 C-45.34239022 84.02706356 -38.64382802 65.65670957 -31.98782349 47.27270508 C-30.00659291 41.79614147 -28.03878208 36.31533953 -26.0980835 30.82427979 C-25.10541925 28.01837846 -24.10381487 25.2157257 -23.10028076 22.41369629 C-22.45034364 20.58816275 -21.81307256 18.75813503 -21.17626953 16.92797852 C-16.63024659 4.29740666 -16.63024659 4.29740666 -10.56652832 1.1443634 C-7.01646401 0.05194009 -3.67689688 -0.0127781 0 0 Z M6.25976562 155.2746582 C6.06534882 155.87043671 5.87093201 156.46621521 5.67062378 157.08004761 C3.16066855 164.77057082 0.64836113 172.46032405 -1.86523438 180.1496582 C-2.27084595 181.39050171 -2.67645752 182.63134521 -3.09436035 183.90979004 C-9.04729954 202.11411428 -15.04813779 220.30170328 -21.14697266 238.45776367 C-23.85919487 246.54178793 -26.53071754 254.63819826 -29.13085938 262.7590332 C-29.39300232 263.56794006 -29.65514526 264.37684692 -29.92523193 265.21026611 C-30.91626877 268.33111507 -31.74023438 270.97916283 -31.74023438 274.2746582 C-6.99023438 274.2746582 17.75976562 274.2746582 43.25976562 274.2746582 C41.35202294 267.27960169 39.40608574 260.37117407 37.19335938 253.4777832 C36.91379898 252.5999115 36.63423859 251.72203979 36.34620667 250.81756592 C35.4653719 248.05257345 34.58152892 245.28855591 33.69726562 242.5246582 C32.80987479 239.74634012 31.92316045 236.96780998 31.03761292 234.18890381 C30.49006664 232.47112322 29.94141735 230.75369367 29.39146423 229.03668213 C27.93409006 224.46954955 26.56286954 219.88881965 25.25976562 215.2746582 C24.73494173 213.54743212 24.20394193 211.82206741 23.66601562 210.09887695 C18.00631997 191.87910298 12.60810124 173.58775554 7.25976562 155.2746582 C6.92976563 155.2746582 6.59976563 155.2746582 6.25976562 155.2746582 Z M38.25976562 346.2746582 C38.25976562 346.6046582 38.25976562 346.9346582 38.25976562 347.2746582 C40.56976563 347.2746582 42.87976563 347.2746582 45.25976562 347.2746582 C45.25976562 346.9446582 45.25976562 346.6146582 45.25976562 346.2746582 C42.94976562 346.2746582 40.63976562 346.2746582 38.25976562 346.2746582 Z " fill="#990F56" transform="translate(334.740234375,225.725341796875)"/>
<path d="M0 0 C6.11610406 0.0052678 12.23216802 0.00355233 18.34827089 -0.00182641 C24.34822831 -0.00688723 30.34816969 -0.0063887 36.34812927 -0.00344467 C38.86486313 -0.00277907 41.38159783 -0.00359099 43.89833069 -0.00592422 C47.35249158 -0.00844017 50.8065863 -0.00463298 54.26074219 0.00097656 C55.28968597 -0.00104767 56.31862976 -0.0030719 57.37875366 -0.00515747 C58.3074527 -0.00233765 59.23615173 0.00048218 60.19299316 0.00338745 C61.00295998 0.00376448 61.81292679 0.0041415 62.64743805 0.00452995 C64.48535156 0.13037109 64.48535156 0.13037109 65.48535156 1.13037109 C65.5843468 2.67992668 65.6161468 4.23390782 65.61816406 5.78662109 C65.61945313 6.72634766 65.62074219 7.66607422 65.62207031 8.63427734 C65.61820313 9.62298828 65.61433594 10.61169922 65.61035156 11.63037109 C65.61421875 12.61908203 65.61808594 13.60779297 65.62207031 14.62646484 C65.62013672 16.03605469 65.62013672 16.03605469 65.61816406 17.47412109 C65.61703613 18.34230469 65.6159082 19.21048828 65.61474609 20.10498047 C65.48535156 22.13037109 65.48535156 22.13037109 64.48535156 23.13037109 C62.78087548 23.32541065 61.07556559 23.51493735 59.36743164 23.67480469 C48.85676457 24.68820005 38.52782161 26.81536065 30.48535156 34.13037109 C21.53807959 45.69585399 20.32909636 59.42789701 20.35595703 73.52075195 C20.35423304 74.6676865 20.35250904 75.81462105 20.3507328 76.99631119 C20.34712441 80.18476378 20.34808392 83.37317612 20.35115242 86.5616281 C20.35303933 89.32889019 20.35130743 92.09614559 20.34958959 94.86340743 C20.34440155 103.30642274 20.34909491 111.74941606 20.35637665 120.19242859 C20.36055547 125.0650936 20.3628715 129.93775856 20.36505127 134.8104248 C20.39384582 193.44822554 20.57119088 252.08587445 20.81908453 310.72312504 C20.85210365 318.62976718 20.8803346 326.53641779 20.90667725 334.44308472 C20.93921556 344.15692034 20.97902414 353.87069477 21.02794099 363.58446223 C21.05300792 368.59010177 21.07500735 373.59570431 21.08872986 378.60138893 C21.10153816 383.22068019 21.12355586 387.8398353 21.15274262 392.45905125 C21.16175506 394.13370335 21.16748636 395.80837708 21.16956306 397.48305213 C20.58490363 411.70585265 20.58490363 411.70585265 25.23535156 424.63037109 C30.86566907 428.3839161 36.79415595 428.52998545 43.33691406 428.74365234 C44.32962311 428.78097977 45.32233215 428.81830719 46.34512329 428.85676575 C59.10266575 429.2871455 71.8669308 429.31751221 84.63037109 429.31567383 C87.46116443 429.31559199 90.29179788 429.32264703 93.12255859 429.33618164 C132.47426109 430.336109 132.47426109 430.336109 166.65332031 413.17333984 C184.29189856 394.7841838 189.95298882 366.81018602 196.48535156 343.13037109 C206.38535156 343.13037109 216.28535156 343.13037109 226.48535156 343.13037109 C224.92052547 370.06028294 222.67573782 396.90105156 220.10029984 423.75053787 C219.85975151 426.26163506 219.6207656 428.77287719 219.38204956 431.28414917 C219.00185863 435.27728332 218.61679644 439.2699181 218.22761726 443.26218605 C218.08253692 444.75456912 217.93866711 446.24707039 217.79604912 447.73969078 C217.59922747 449.79366267 217.39729019 451.84706544 217.19384766 453.90039062 C217.02422012 455.63991501 217.02422012 455.63991501 216.85116577 457.4145813 C216.48535156 460.13037109 216.48535156 460.13037109 215.48535156 462.13037109 C176.01020689 462.15323592 136.53506307 462.17086853 97.0599131 462.18143642 C92.40460677 462.1826872 87.74930045 462.18398152 83.09399414 462.18530273 C81.70375174 462.1856962 81.70375174 462.1856962 80.28542363 462.18609761 C65.25788969 462.19045464 50.23035956 462.19834236 35.20282788 462.20752389 C19.79510421 462.21685953 4.38738254 462.22242651 -11.02034384 462.22445959 C-20.53567346 462.225835 -30.05099233 462.23018659 -39.56631864 462.23828756 C-46.08214108 462.24355391 -52.59795792 462.24517564 -59.11378234 462.24387247 C-62.87888403 462.24322892 -66.64396687 462.24424855 -70.40906525 462.24957657 C-74.48125441 462.25529742 -78.55340287 462.2533723 -82.62559509 462.25062561 C-83.82887622 462.25353845 -85.03215735 462.25645129 -86.27190155 462.2594524 C-87.35374523 462.25746135 -88.4355889 462.25547031 -89.55021572 462.25341892 C-90.49154242 462.25379864 -91.43286912 462.25417836 -92.40272087 462.25456959 C-94.51464844 462.13037109 -94.51464844 462.13037109 -95.51464844 461.13037109 C-95.91155899 458.4586299 -96.24281751 455.81541841 -96.51464844 453.13037109 C-96.58844727 452.41977539 -96.66224609 451.70917969 -96.73828125 450.97705078 C-97.91005315 437.83517819 -97.91005315 437.83517819 -94.75292969 433.97802734 C-92.45214844 432.56787109 -92.45214844 432.56787109 -89.96777344 431.36474609 C-83.85892404 428.29086646 -79.85284362 422.01450203 -77.35449219 415.80615234 C-73.01654129 401.98523902 -72.36292768 387.80910456 -72.38093567 373.43617249 C-72.37906356 372.08229603 -72.37676128 370.72842011 -72.37407035 369.37454504 C-72.36799564 365.68284277 -72.36808078 361.9911633 -72.36926472 358.29945719 C-72.36946982 354.30687849 -72.36393968 350.3143069 -72.35920715 346.32173157 C-72.35092457 338.51128439 -72.34815342 330.70084476 -72.34759478 322.89039356 C-72.34711861 316.53968977 -72.34505889 310.18898845 -72.34189415 303.83828545 C-72.33309522 285.81335246 -72.32847375 267.78842542 -72.32922462 249.76349027 C-72.32928456 248.30794662 -72.32928456 248.30794662 -72.3293457 246.82299805 C-72.32940702 245.36566794 -72.32940702 245.36566794 -72.32946958 243.87889683 C-72.32987616 228.12876769 -72.32030174 212.37866245 -72.30620734 196.62854023 C-72.29183302 180.43731466 -72.28493769 164.24610074 -72.28580111 148.05486864 C-72.28613265 138.97229434 -72.28340446 129.88974512 -72.27262306 120.80717659 C-72.26350432 113.07612357 -72.26135421 105.34510701 -72.26813249 97.61405093 C-72.27139034 93.67331881 -72.27148094 89.73265657 -72.26277924 85.79193115 C-72.25488107 82.17782355 -72.25637923 78.56384085 -72.26506337 74.94973617 C-72.26730941 73.03743547 -72.25979598 71.12513079 -72.25182372 69.21284539 C-72.30248804 56.4369964 -73.31857899 43.12957329 -82.26464844 33.18505859 C-90.66568791 26.2191967 -102.0514895 24.62510808 -112.51464844 23.13037109 C-112.51464844 15.87037109 -112.51464844 8.61037109 -112.51464844 1.13037109 C-75.00396326 0.34487258 -37.51961314 -0.03276901 0 0 Z " fill="#1E1D1C" transform="translate(679.5146484375,238.86962890625)"/>
<path d="M0 0 C1.14484612 -0.0076664 1.14484612 -0.0076664 2.31282043 -0.01548767 C4.82646606 -0.02934618 7.33983642 -0.02842999 9.85351562 -0.02612305 C11.60559185 -0.03001153 13.35766714 -0.03434652 15.10974121 -0.03910828 C18.77810729 -0.04656206 22.44637711 -0.04628495 26.11474609 -0.04101562 C30.81238591 -0.0352167 35.50963201 -0.05216618 40.20720673 -0.0753603 C43.82405902 -0.09009978 47.44081647 -0.09096914 51.05769348 -0.08785057 C52.78962485 -0.0883635 54.52156156 -0.09359588 56.25346375 -0.10366249 C58.67574603 -0.11601633 61.097261 -0.10924239 63.51953125 -0.09765625 C64.23240799 -0.10529999 64.94528473 -0.11294373 65.67976379 -0.12081909 C70.05762669 -0.07459801 72.75546284 0.63963771 76.25976562 3.2746582 C79.78116383 6.95261625 81.26839262 10.48499444 82.81835938 15.30200195 C83.15608116 16.3341256 83.15608116 16.3341256 83.50062561 17.38710022 C83.98697443 18.87717105 84.46853763 20.36881067 84.94580078 21.86181641 C85.97808199 25.09046202 87.03364318 28.31135036 88.08792114 31.53286743 C88.64154342 33.22501607 89.19399636 34.91754768 89.74533081 36.61044312 C92.39665819 44.73992546 95.16120848 52.8287733 97.9463501 60.91320801 C102.73649177 74.81960714 107.43871637 88.75293816 112.06890869 102.71334839 C115.44737487 112.89614992 118.89078291 123.05386173 122.39450073 133.19421387 C127.78966684 148.81232674 132.9508836 164.49949392 138.04394531 180.21850586 C141.77546493 191.73296424 145.54801224 203.23232469 149.38476562 214.7121582 C149.75518478 215.82062103 149.75518478 215.82062103 150.13308716 216.95147705 C151.36495316 220.63667171 152.59794615 224.32148792 153.83154297 228.00610352 C155.89153074 234.16045419 157.9423396 240.31786156 159.99359131 246.47512817 C161.21600652 250.14412331 162.43910491 253.81289071 163.66210938 257.48168945 C164.21924143 259.15307512 164.77637015 260.8244619 165.33349609 262.49584961 C165.63664734 263.40530334 165.93979858 264.31475708 166.25213623 265.25177002 C174.23010254 289.18566895 182.20806885 313.11956787 190.18603516 337.0534668 C190.61175056 338.33059792 190.61175056 338.33059792 191.04606628 339.63352966 C191.57775788 341.22862444 192.10942581 342.82372709 192.6410675 344.4188385 C193.82728263 347.97782031 195.01386117 351.53667982 196.20141602 355.09521484 C198.35773015 361.55803424 200.50878853 368.02251714 202.64802551 374.49101257 C203.73428627 377.77453617 204.82285041 381.05729414 205.91159058 384.33999634 C206.42341593 385.88533317 206.93415213 387.4310313 207.44363403 388.97714233 C214.29128614 413.04124783 214.29128614 413.04124783 230.25976562 431.2746582 C232.86816789 432.56619719 235.46204577 433.48511763 238.25976562 434.2746582 C239.29101562 434.5840332 240.32226562 434.8934082 241.38476562 435.2121582 C245.55670817 435.30285261 247.13608101 433.99957457 250.25976562 431.2746582 C261.43152342 418.6827617 259.41159837 396.1048166 259.40020752 380.35845947 C259.40317864 379.04258402 259.40614976 377.72670856 259.40921092 376.37095809 C259.41717082 372.76617587 259.41906421 369.16141366 259.41980839 365.5566237 C259.42167817 361.65070468 259.42923426 357.74479559 259.4359436 353.83888245 C259.44944325 345.32484225 259.45553692 336.81080681 259.45995426 328.2967577 C259.46272783 322.97430384 259.46696685 317.65185176 259.47145844 312.32939911 C259.48363429 297.57060485 259.4939407 282.81181201 259.49733353 268.05301285 C259.49755309 267.11120363 259.49777266 266.16939441 259.49799888 265.19904552 C259.49821716 264.25511877 259.49843543 263.31119202 259.49866033 262.33866143 C259.49910378 260.42621374 259.49955034 258.51376605 259.5 256.60131836 C259.50022143 255.65269896 259.50044286 254.70407955 259.500671 253.7267141 C259.50462426 238.33504438 259.52210188 222.94342184 259.54535952 207.55177036 C259.56908675 191.72089677 259.5815358 175.89004688 259.58270144 160.05915523 C259.5836168 151.18177761 259.58933509 142.30446171 259.60752106 133.42710114 C259.62293974 125.87470219 259.62803163 118.32238411 259.61978295 110.76997241 C259.61588432 106.92043792 259.61676786 103.07106621 259.6308403 99.2215519 C259.64597982 95.04189195 259.63769074 90.86259666 259.6272583 86.68292236 C259.63531471 85.47620101 259.64337111 84.26947966 259.65167165 83.026191 C259.59739617 73.71248795 258.7671844 63.48558171 252.25976562 56.2746582 C246.11196933 52.28253557 239.94217943 51.35481795 232.79492188 50.58520508 C227.13329548 49.82807105 224.10065184 48.61170753 220.25976562 44.2746582 C218.16227657 38.51861782 217.9370585 33.04614293 218.00976562 26.9621582 C218.0179834 26.13055176 218.02620117 25.29894531 218.03466797 24.44213867 C218.31776942 8.81067678 218.31776942 8.81067678 221.58789062 4.5402832 C226.50979738 0.11553875 231.35500014 0.12638549 237.64779663 0.13421631 C238.39427102 0.13124519 239.1407454 0.12827406 239.90984023 0.12521291 C242.41239833 0.11653782 244.91490852 0.11501868 247.41748047 0.11352539 C249.21126915 0.10889644 251.00505684 0.10387167 252.79884338 0.09848022 C257.67282051 0.08536316 262.54678387 0.07891282 267.42077589 0.07446957 C270.46550272 0.07153821 273.51022578 0.06743332 276.55495071 0.06296539 C286.08036703 0.04929336 295.60577475 0.03962481 305.13120019 0.0357635 C316.12883279 0.03128091 327.12634122 0.01372243 338.12393606 -0.01523709 C346.62425504 -0.03684429 355.12453905 -0.04694024 363.6248852 -0.04827762 C368.70223617 -0.04932617 373.77947037 -0.055245 378.85679245 -0.07309723 C383.63220011 -0.08956164 388.407403 -0.09174134 393.1828289 -0.08295822 C394.93477997 -0.08218702 396.68674198 -0.08654151 398.43866539 -0.09641647 C400.83194358 -0.10911477 403.22449415 -0.10327109 405.61776733 -0.09283447 C406.30960534 -0.10089088 407.00144336 -0.10894728 407.71424615 -0.11724782 C412.27524136 -0.07078879 415.38610475 0.87994239 419.25976562 3.2746582 C424.28947389 10.03874863 423.508279 17.49498344 423.57226562 25.5871582 C423.60126953 26.79823242 423.63027344 28.00930664 423.66015625 29.25708008 C423.71819859 37.41426183 423.10706279 41.95328651 417.61132812 48.1262207 C413.80848065 49.98342529 409.80553086 50.17987945 405.63476562 50.6496582 C394.6633545 51.92219894 394.6633545 51.92219894 385.25976562 57.2746582 C372.7023986 75.16743234 378.19002788 108.87823836 378.22094727 129.79321289 C378.2227535 132.06441108 378.22445221 134.33560936 378.22605228 136.60680771 C378.24961249 163.03888045 378.33971417 189.47083321 378.43603835 215.90272295 C378.44342964 217.93460013 378.45076976 219.96647749 378.45809293 221.99835491 C378.50409523 234.76112549 378.55065202 247.5238939 378.59910488 260.28665543 C378.61010327 263.18597664 378.62109643 266.08529787 378.63208008 268.98461914 C378.63617253 270.06466696 378.63617253 270.06466696 378.64034767 271.16653392 C378.68482989 282.93442035 378.72538195 294.70231711 378.76441824 306.47022274 C378.80497417 318.67609419 378.84909237 330.88194879 378.89664418 343.08779502 C378.9230672 349.89285704 378.94798602 356.69791678 378.96883965 363.50299835 C378.98853099 369.86969524 379.01271016 376.23635975 379.0402565 382.60302734 C379.04954156 384.92487754 379.05724662 387.24673472 379.06318474 389.56859589 C379.09553709 401.84370607 379.28336648 414.03392222 380.25976562 426.2746582 C388.83709138 428.72271802 397.29573322 428.56598142 406.13085938 428.5402832 C407.77881426 428.54163411 409.42676875 428.54357817 411.07472229 428.54608154 C414.52340501 428.54902022 417.97198374 428.54478076 421.4206543 428.53540039 C425.78725594 428.52408769 430.15360941 428.53052103 434.52020168 428.54254532 C437.92568231 428.54986771 441.33110685 428.54742781 444.73658943 428.54228973 C446.34333388 428.54097745 447.95008382 428.54251343 449.55682182 428.54724884 C458.09529505 428.56687328 466.51250652 428.28958581 475.00610352 427.36743164 C475.74363326 427.28789371 476.48116301 427.20835579 477.24104214 427.12640762 C488.50871537 425.78225403 497.96729416 421.77574947 505.25976562 412.8996582 C515.55991528 398.03403681 521.12695751 380.27452997 525.69726562 362.9465332 C525.91229736 362.13168457 526.1273291 361.31683594 526.34887695 360.47729492 C526.7329766 358.98320843 527.10142343 357.48496029 527.44995117 355.98217773 C528.74717283 350.81444485 530.53240885 347.952899 534.25976562 344.2746582 C538.40876353 342.10080008 542.35057957 341.96786736 546.93945312 341.97387695 C547.6704422 341.96959183 548.40143127 341.9653067 549.15457153 341.96089172 C550.69597339 341.95516791 552.23740225 341.95463376 553.77880859 341.95898438 C556.12059305 341.96213911 558.46110631 341.9386809 560.80273438 341.91333008 C562.30663905 341.91105614 563.81054708 341.91035403 565.31445312 341.91137695 C566.00634735 341.90216721 566.69824158 341.89295746 567.41110229 341.88346863 C572.46796577 341.93090285 575.84960566 342.97159 580.25976562 345.2746582 C583.42389392 349.38802498 584.46070839 353.27254713 584.20637512 358.39454651 C584.16807681 359.20173347 584.1297785 360.00892042 584.09031963 360.84056759 C584.01721176 362.15094415 584.01721176 362.15094415 583.94262695 363.48779297 C583.89437932 364.41327973 583.84613169 365.3387665 583.796422 366.29229832 C583.18234381 377.49865447 582.26990237 388.68123846 581.33398438 399.86450195 C581.24060099 400.98514101 581.1472176 402.10578007 581.05100441 403.26037788 C580.55839663 409.16162705 580.06061045 415.06241404 579.55883789 420.96289062 C579.04348232 427.03750078 578.54814966 433.11358157 578.05684185 439.19017696 C577.67276601 443.89318016 577.27344744 448.59479994 576.86997414 453.296175 C576.68037258 455.53754913 576.49660829 457.77942523 576.3188839 460.02177238 C576.07019664 463.14276778 575.79984491 466.26117156 575.52416992 469.37988281 C575.42186317 470.75675262 575.42186317 470.75675262 575.31748962 472.16143799 C574.73337675 478.40643927 573.2523383 482.54828695 568.46384025 486.91082877 C565.72322926 488.60665426 564.03428214 488.65503159 560.82359695 488.66500568 C559.15747136 488.68104059 559.15747136 488.68104059 557.45768666 488.69739944 C556.23747343 488.6939161 555.01726019 488.69043276 553.7600708 488.68684387 C552.46372798 488.69490183 551.16738515 488.70295979 549.83175921 488.71126193 C546.23049827 488.73321119 542.62942375 488.73647745 539.02810478 488.73671615 C535.14518696 488.74020259 531.26235602 488.7608736 527.37948608 488.77938843 C519.77062619 488.81290345 512.16180951 488.83036332 504.55288842 488.84231589 C495.69217743 488.85675542 486.83153662 488.88634497 477.97086725 488.91640886 C462.15833266 488.9694757 446.34579604 489.0077112 430.53320312 489.03808594 C415.19135367 489.06756098 399.84959501 489.10897366 384.5078125 489.16308594 C367.80598232 489.22197771 351.10415583 489.27453277 334.40227199 489.31581324 C332.62048387 489.32022256 330.83869576 489.32463356 329.05690765 489.32904625 C328.18022624 489.33120682 327.30354482 489.33336739 326.4002973 489.33559344 C320.22540081 489.35119335 314.05052701 489.37113431 307.8756485 489.39261818 C300.34634783 489.41862159 292.81707087 489.43717752 285.28773025 489.44637034 C281.44676892 489.45122223 277.60588665 489.45925775 273.76495743 489.4760685 C269.59907029 489.49417986 265.43332142 489.49656559 261.26739502 489.49739075 C260.05610467 489.50506102 258.84481432 489.51273129 257.59681821 489.520634 C251.4183925 489.50769062 246.19932396 488.9309427 240.25976562 487.2746582 C239.59976562 487.6046582 238.93976563 487.9346582 238.25976562 488.2746582 C235.98030639 488.3779373 233.69773964 488.41421632 231.41595459 488.42182922 C230.70385747 488.42550591 229.99176035 488.4291826 229.25808454 488.4329707 C226.85987468 488.44402824 224.46170812 488.44785488 222.06347656 488.45166016 C220.34879925 488.45792327 218.6341233 488.46456993 216.91944885 488.47157288 C212.25196263 488.48899722 207.58448667 488.49953863 202.91697598 488.50777841 C200.00191252 488.51292573 197.08685227 488.5190016 194.17179108 488.52528954 C185.05429748 488.54434598 175.93681201 488.55857591 166.81930232 488.5669015 C156.28911313 488.57667533 145.75913406 488.60299676 135.22901893 488.6434024 C127.09391848 488.6735484 118.95887831 488.68836895 110.82372308 488.69168252 C105.96315463 488.69403482 101.10281055 488.70301854 96.24230194 488.72814369 C91.66878427 488.7514028 87.09563902 488.75566639 82.52207756 488.74538231 C80.84429881 488.7448863 79.16650186 488.75122583 77.48877907 488.76493835 C75.19590988 488.78262858 72.90438139 488.7755665 70.61151123 488.7624054 C69.32912945 488.76479375 68.04674767 488.7671821 66.72550583 488.76964283 C62.60843579 488.18163385 60.47143327 486.87363645 57.25976562 484.2746582 C53.0921032 478.02316456 54.07649668 470.1601494 54.07226562 462.8996582 C54.06001953 461.80137695 54.04777344 460.7030957 54.03515625 459.5715332 C54.00986423 445.50916991 54.00986423 445.50916991 58.23242188 439.4387207 C62.46650503 436.41203416 66.64593103 435.64107425 71.69726562 434.6496582 C81.78883865 433.10756118 81.78883865 433.10756118 89.63867188 427.35668945 C91.61853248 420.71979824 88.89903422 413.55260138 86.82226562 407.2121582 C86.49633423 406.21091919 86.49633423 406.21091919 86.16381836 405.18945312 C85.09812477 401.52931656 85.09812477 401.52931656 82.25976562 399.2746582 C82.56914063 398.4084082 82.56914063 398.4084082 82.88476562 397.5246582 C83.35705028 394.69095027 82.54621778 393.79102158 81.25976562 391.2746582 C80.92640741 389.95957839 80.63920458 388.63216392 80.39257812 387.2980957 C79.14338197 381.33080055 77.12323935 375.6542871 75.13476562 369.8996582 C74.39884023 367.76827566 73.66687376 365.63552081 72.93945312 363.5012207 C72.61702637 362.56874512 72.29459961 361.63626953 71.96240234 360.67553711 C71.25976562 358.2746582 71.25976562 358.2746582 71.25976562 355.2746582 C70.59976562 354.9446582 69.93976563 354.6146582 69.25976562 354.2746582 C69.25976562 352.2946582 69.25976562 350.3146582 69.25976562 348.2746582 C67.93976563 348.9346582 66.61976563 349.5946582 65.25976562 350.2746582 C64.92976563 349.2846582 64.59976562 348.2946582 64.25976562 347.2746582 C60.29976563 347.2746582 56.33976562 347.2746582 52.25976562 347.2746582 C52.25976562 347.6046582 52.25976562 347.9346582 52.25976562 348.2746582 C46.32951759 349.24506243 41.19586229 349.1678209 35.25976562 348.2746582 C35.25976562 347.9446582 35.25976562 347.6146582 35.25976562 347.2746582 C9.84976563 346.9446582 -15.56023437 346.6146582 -41.74023438 346.2746582 C-42.07023438 347.2646582 -42.40023437 348.2546582 -42.74023438 349.2746582 C-44.39023437 348.9446582 -46.04023438 348.6146582 -47.74023438 348.2746582 C-47.74023438 347.9446582 -47.74023438 347.6146582 -47.74023438 347.2746582 C-50.71023438 347.2746582 -53.68023437 347.2746582 -56.74023438 347.2746582 C-58.64814377 353.33369016 -60.55009085 359.39455313 -62.44702148 365.45703125 C-63.09032479 367.51025299 -63.73513037 369.56300478 -64.3815918 371.61523438 C-67.64626573 381.98254002 -70.8569061 392.3516525 -73.63867188 402.8605957 C-73.84115036 403.6224971 -74.04362885 404.3843985 -74.25224304 405.16938782 C-77.41543564 416.88048459 -77.41543564 416.88048459 -74.74023438 428.2746582 C-69.67124716 432.22947199 -63.47724601 432.59380627 -57.30859375 433.55981445 C-51.31111597 434.61899166 -46.48531223 436.3521773 -41.74023438 440.2746582 C-37.44241341 446.72138965 -38.52091997 454.60370818 -38.49023438 462.0871582 C-38.46960938 463.33303711 -38.44898438 464.57891602 -38.42773438 465.86254883 C-38.39888166 472.66097066 -38.41165716 478.25384941 -41.74023438 484.2746582 C-45.97979561 487.68309006 -48.82596984 488.77484922 -54.23658752 488.77586365 C-55.52497528 488.78569778 -56.81336304 488.79553192 -58.14079285 488.80566406 C-59.55618553 488.79629344 -60.97157556 488.78651418 -62.38696289 488.77636719 C-63.88711046 488.78015283 -65.38725452 488.7856549 -66.88739014 488.79273987 C-70.95143977 488.80667869 -75.01506531 488.79553652 -79.07909131 488.77902865 C-83.33552191 488.76515916 -87.59192836 488.7716403 -91.84837341 488.77516174 C-98.99460673 488.77786207 -106.14067192 488.76440255 -113.28686523 488.74121094 C-121.54623652 488.71459209 -129.80532692 488.71285797 -138.06472641 488.7245993 C-146.01506488 488.73538133 -153.96530184 488.72918735 -161.91563225 488.71504402 C-165.29711243 488.70928892 -168.67851821 488.70936313 -172.05999947 488.71410942 C-176.04180003 488.71888459 -180.02329328 488.70875538 -184.0050354 488.68715477 C-185.46551922 488.68159443 -186.92603261 488.68111472 -188.38651848 488.68610764 C-190.38130743 488.69207157 -192.37612621 488.67770668 -194.37086487 488.66233826 C-196.04467397 488.65869341 -196.04467397 488.65869341 -197.7522974 488.65497494 C-201.1472908 488.22284641 -203.00735441 487.30498953 -205.74023438 485.2746582 C-208.71479958 480.77762649 -209.19610456 476.727802 -209.17382812 471.4621582 C-209.17906998 470.7302124 -209.18431183 469.9982666 -209.18971252 469.24414062 C-209.19610435 467.70452131 -209.19483268 466.16485297 -209.1862793 464.62524414 C-209.17775717 462.28092966 -209.20658464 459.93904576 -209.23828125 457.5949707 C-209.23989336 456.09236726 -209.23931555 454.58975954 -209.23632812 453.0871582 C-209.2475621 452.39323975 -209.25879608 451.69932129 -209.27037048 450.984375 C-209.1992052 445.97079385 -207.85829886 443.1481468 -204.74023438 439.2746582 C-200.79714556 436.22460344 -196.36272383 435.24658587 -191.61523438 434.0246582 C-180.47218635 430.89716174 -172.25122235 426.74171094 -166.31054688 416.39575195 C-160.9943324 406.72466138 -160.9943324 406.72466138 -158.74023438 396.2746582 C-158.08023438 396.2746582 -157.42023438 396.2746582 -156.74023438 396.2746582 C-156.61184174 395.39269272 -156.4834491 394.51072723 -156.35116577 393.60203552 C-155.79375526 390.56615443 -155.02752629 387.92618072 -153.96533203 385.03662109 C-153.60011948 384.03492386 -153.23490692 383.03322662 -152.85862732 382.00117493 C-152.46119827 380.92740097 -152.06376923 379.85362701 -151.65429688 378.74731445 C-151.24127823 377.61815109 -150.82825958 376.48898773 -150.40272522 375.3256073 C-149.06147021 371.66109607 -147.71327704 367.99917724 -146.36523438 364.3371582 C-144.52706749 359.3241291 -142.69498795 354.30886834 -140.86132812 349.29418945 C-140.41217545 348.067435 -139.96302277 346.84068054 -139.5002594 345.57675171 C-135.67986598 335.13485709 -131.93585909 324.66817669 -128.25244141 314.17724609 C-125.44081511 306.18454271 -122.52649121 298.23266439 -119.58959961 290.28540039 C-117.75782623 285.3274512 -115.94046325 280.36431249 -114.12695312 275.3996582 C-113.82673248 274.57808228 -113.52651184 273.75650635 -113.2171936 272.91003418 C-111.95898284 269.46659806 -110.70109561 266.0230438 -109.44326782 262.57946777 C-105.86797307 252.79348453 -102.27965416 243.01326229 -98.63354492 233.25341797 C-94.9882008 223.49239833 -91.47900754 213.69884741 -88.11523438 203.8371582 C-83.83113361 191.28046058 -79.34525689 178.80247904 -74.80273438 166.3371582 C-74.45691315 165.38803558 -74.11109192 164.43891296 -73.75479126 163.46102905 C-70.37932898 154.20205191 -66.99191566 144.94751608 -63.58398438 135.70043945 C-59.52077037 124.67276064 -55.48523356 113.64361321 -51.67773438 102.5246582 C-45.34239022 84.02706356 -38.64382802 65.65670957 -31.98782349 47.27270508 C-30.00659291 41.79614147 -28.03878208 36.31533953 -26.0980835 30.82427979 C-25.10541925 28.01837846 -24.10381487 25.2157257 -23.10028076 22.41369629 C-22.45034364 20.58816275 -21.81307256 18.75813503 -21.17626953 16.92797852 C-16.63024659 4.29740666 -16.63024659 4.29740666 -10.56652832 1.1443634 C-7.01646401 0.05194009 -3.67689688 -0.0127781 0 0 Z M232.25976562 14.2746582 C232.25976562 21.5346582 232.25976562 28.7946582 232.25976562 36.2746582 C234.69351562 36.6871582 237.12726563 37.0996582 239.63476562 37.5246582 C248.34859236 39.11236194 258.43359983 40.97539935 264.25976562 48.2746582 C271.7805492 60.15243418 272.56366875 72.29285613 272.51373291 86.04873657 C272.51604277 87.39920099 272.5192228 88.74966414 272.5231874 90.10012472 C272.53147256 93.77801253 272.52743892 97.45579544 272.52121496 101.13368344 C272.51666527 105.11341104 272.52368682 109.09312136 272.5291748 113.07284546 C272.53804518 120.8577746 272.53615689 128.64266506 272.53034952 136.42759569 C272.5258218 142.76106366 272.52522493 149.09452083 272.52739716 155.42798996 C272.52770362 156.33148556 272.52801009 157.23498115 272.52832584 158.1658554 C272.52896534 160.00170983 272.52961377 161.83756426 272.53027102 163.67341869 C272.53596793 180.87078713 272.52942749 198.06813422 272.51867029 215.26549916 C272.50974448 229.99007981 272.51128006 244.71462891 272.52050781 259.43920898 C272.5312375 276.56824461 272.5354091 293.69726151 272.52928329 310.82630002 C272.52864624 312.65701063 272.5280175 314.48772124 272.52739716 316.31843185 C272.5270886 317.21898735 272.52678005 318.11954285 272.52646215 319.04738791 C272.52474261 325.36294242 272.52763445 331.67848497 272.53235626 337.99403763 C272.53799556 345.70586793 272.53638545 353.41765758 272.52579477 361.1294833 C272.52057737 365.0567861 272.51841313 368.98402141 272.52509308 372.91132355 C272.61048585 427.84196417 272.61048585 427.84196417 258.49414062 442.05200195 C255.93695058 444.32567745 253.73548079 446.07097754 250.56835938 447.42700195 C247.83806848 449.17892413 247.83806848 449.17892413 247.73632812 453.00512695 C247.76023657 454.49143546 247.81072433 455.97750253 247.88476562 457.4621582 C247.89894531 458.19241211 247.913125 458.92266602 247.92773438 459.67504883 C247.68625145 468.05494615 247.68625145 468.05494615 250.25976562 475.2746582 C251.91222979 475.37183652 253.56887934 475.39837377 255.22419834 475.39770603 C256.30604202 475.39969708 257.3878857 475.40168813 258.50251251 475.40373951 C259.70579364 475.40082667 260.90907477 475.39791383 262.14881897 475.39491272 C263.41557463 475.39576714 264.68233028 475.39662157 265.98747247 475.39750189 C269.51971229 475.39974923 273.05192208 475.39572232 276.58415806 475.39072382 C280.38717535 475.38642292 284.19019081 475.38786549 287.99320984 475.3886261 C294.58755459 475.38915156 301.18188949 475.38600242 307.77623177 475.38038826 C317.3106542 475.37227629 326.84507184 475.36965835 336.37949734 475.36840027 C351.84683231 475.36620927 367.31416203 475.35954789 382.78149414 475.35009766 C397.81046523 475.34092477 412.83943489 475.33384334 427.8684082 475.32958984 C428.79411411 475.32932712 429.71982001 475.3290644 430.67357761 475.32879371 C435.31736906 475.32748872 439.96116052 475.326225 444.60495198 475.32498181 C483.15656021 475.31460771 521.70816257 475.2969881 560.25976562 475.2746582 C561.62378717 472.54661512 561.67173162 470.08558344 561.96826172 467.04467773 C562.03191201 466.40226167 562.09556231 465.7598456 562.1611414 465.09796238 C562.37258607 462.95151018 562.57805403 460.80453313 562.78320312 458.6574707 C562.93054632 457.14181058 563.07809773 455.62617068 563.22584534 454.11054993 C563.62038688 450.04695475 564.00871027 445.98278872 564.39506149 441.91840744 C564.63382571 439.4095346 564.87413941 436.90081419 565.11477661 434.39212036 C567.60581037 408.37721875 569.74362396 382.36673422 571.25976562 356.2746582 C561.35976563 356.2746582 551.45976563 356.2746582 541.25976562 356.2746582 C540.06351563 360.5646582 538.86726563 364.8546582 537.63476562 369.2746582 C523.12443932 420.34583504 523.12443932 420.34583504 502.25976562 433.2746582 C486.26873316 441.62275054 468.65768172 442.43560226 450.99414062 442.4074707 C449.63006574 442.40814749 448.26599098 442.40912061 446.9019165 442.41036987 C444.05113571 442.41183523 441.20038646 442.40973401 438.34960938 442.4050293 C434.76975197 442.39939711 431.18996977 442.40269506 427.61011505 442.40843582 C414.47634917 442.4266913 401.34045386 442.39559137 388.21289062 441.9543457 C387.30891541 441.93236115 386.40494019 441.91037659 385.47357178 441.88772583 C379.82356839 441.65367684 375.40691185 440.67153609 370.25976562 438.2746582 C366.01165737 432.24508519 366.13778138 425.00130517 366.10154724 417.84947205 C366.09660856 417.13279515 366.09166987 416.41611826 366.08658153 415.67772388 C366.07128433 413.28547691 366.06285788 410.8932569 366.05444336 408.50097656 C366.04485517 406.76999724 366.03485544 405.03902016 366.02447891 403.30804539 C365.99737392 398.57404242 365.97637109 393.84002948 365.95649314 389.10599136 C365.93425405 384.04057385 365.9066267 378.97518514 365.87983704 373.90979004 C365.81716043 361.81361208 365.76408464 349.71739922 365.71207237 337.62117147 C365.69239689 333.09121184 365.67195928 328.56125581 365.65147483 324.03129977 C365.5172809 294.35496114 365.40027171 264.67857808 365.29478586 235.00212425 C365.26868275 227.6819941 365.24121339 220.36187016 365.21295166 213.04174805 C365.13654036 193.13268221 365.06958489 173.22366831 365.03676128 153.31447697 C365.03404601 151.6733659 365.03132395 150.03225484 365.02859497 148.3911438 C365.02660193 147.18532136 365.02660193 147.18532136 365.02456862 145.95513886 C365.01456412 140.33895016 364.99695027 134.7228167 364.9760437 129.10665894 C364.95092622 122.32466283 364.93641322 115.54274793 364.93592697 108.76070344 C364.93544736 105.35766995 364.92886418 101.95496998 364.91216469 98.55195618 C364.73385516 60.33086029 364.73385516 60.33086029 375.69726562 47.3996582 C384.51615368 40.08643396 392.81460654 38.08967156 403.93896484 36.9206543 C407.39477729 36.83532278 407.39477729 36.83532278 410.25976562 35.2746582 C410.35876086 33.72510261 410.39056087 32.17112148 410.39257812 30.6184082 C410.39451172 29.20881836 410.39451172 29.20881836 410.39648438 27.77075195 C410.39261719 26.78204102 410.38875 25.79333008 410.38476562 24.7746582 C410.38863281 23.78594727 410.3925 22.79723633 410.39648438 21.77856445 C410.39519531 20.83883789 410.39390625 19.89911133 410.39257812 18.9309082 C410.39088623 17.62863281 410.39088623 17.62863281 410.38916016 16.30004883 C410.48391932 14.27861667 410.48391932 14.27861667 409.25976562 13.2746582 C407.83169706 13.17687897 406.39881917 13.14834086 404.96740723 13.14767456 C404.03870819 13.14485474 403.11000916 13.14203491 402.15316772 13.13912964 C401.12422394 13.14115387 400.09528015 13.1431781 399.03515625 13.14526367 C397.95614044 13.14351135 396.87712463 13.14175903 395.76541138 13.13995361 C392.14893028 13.13551057 388.53249735 13.13849291 384.91601562 13.1418457 C382.36356599 13.14117065 379.81111641 13.14019895 377.25866699 13.13894653 C371.85440413 13.13746416 366.45015901 13.1395344 361.04589844 13.14428711 C354.30445829 13.15015077 347.5630659 13.14672267 340.82162476 13.14083481 C304.62038086 13.11426341 268.45236168 13.51676135 232.25976562 14.2746582 Z M-5.74023438 14.2746582 C-13.92104423 36.67975907 -22.06026325 59.09242048 -29.99023438 81.5871582 C-36.43691978 99.8714399 -43.0239237 118.10114369 -49.67391968 136.31237793 C-57.57366137 157.95703502 -65.30117204 179.6602342 -72.9675293 201.38842773 C-78.66762593 217.52950404 -84.50494456 233.61439325 -90.41854858 249.67800903 C-92.48777706 255.30891536 -94.54098018 260.94561833 -96.59179688 266.58325195 C-96.98105347 267.65324432 -97.37031006 268.72323669 -97.7713623 269.82565308 C-98.96975855 273.12099542 -100.16757905 276.41654651 -101.36523438 279.7121582 C-101.78888275 280.87766205 -102.21253113 282.04316589 -102.64901733 283.24398804 C-108.62601609 299.68841205 -114.59702636 316.13501027 -120.55273438 332.5871582 C-120.8977298 333.53989624 -121.24272522 334.49263428 -121.59817505 335.47424316 C-125.37775343 345.9156907 -129.13524891 356.36450747 -132.84960938 366.8293457 C-133.35212471 368.24345985 -133.35212471 368.24345985 -133.86479187 369.68614197 C-135.43826958 374.1146281 -137.00810254 378.54431904 -138.56958008 382.97705078 C-141.54312606 391.38377907 -144.63946086 399.73242293 -147.91992188 408.0246582 C-148.24062149 408.84282516 -148.56132111 409.66099213 -148.89173889 410.50395203 C-154.12394274 423.56449527 -161.61375791 436.04825801 -174.74023438 442.2746582 C-178.55079486 443.67470439 -182.37712169 444.95401653 -186.25195312 446.16137695 C-189.12301643 447.07767375 -191.9420508 448.15538477 -194.74023438 449.2746582 C-194.74023438 457.5246582 -194.74023438 465.7746582 -194.74023438 474.2746582 C-147.88023437 474.2746582 -101.02023438 474.2746582 -52.74023438 474.2746582 C-52.74023438 466.0246582 -52.74023438 457.7746582 -52.74023438 449.2746582 C-54.66047312 447.35441945 -58.04810201 447.42444864 -60.61523438 446.9621582 C-81.14970589 443.06202952 -81.14970589 443.06202952 -86.99023438 435.2746582 C-89.58394495 430.82829722 -89.92582452 427.61303697 -89.99023438 422.5246582 C-90.01601562 421.33356445 -90.04179687 420.1424707 -90.06835938 418.9152832 C-89.52368414 405.58684996 -84.92125879 392.48762258 -81.05273438 379.8371582 C-80.51765819 378.06884053 -79.98282954 376.30044794 -79.44824219 374.53198242 C-76.13366945 363.61214983 -72.69036847 352.74401889 -68.97583008 341.95263672 C-68.67636475 341.08179443 -68.37689941 340.21095215 -68.06835938 339.3137207 C-67.80958008 338.57331543 -67.55080078 337.83291016 -67.28417969 337.07006836 C-66.64358451 335.26831082 -66.64358451 335.26831082 -66.74023438 333.2746582 C-19.55023438 333.2746582 27.63976562 333.2746582 76.25976562 333.2746582 C80.76102602 343.4024941 80.76102602 343.4024941 82.50219727 348.78149414 C82.89262711 349.98014099 83.28305695 351.17878784 83.68531799 352.41375732 C84.09711804 353.6954307 84.5086458 354.97719159 84.91992188 356.2590332 C85.35514762 357.60517125 85.7906543 358.9512185 86.22642517 360.29718018 C87.13475419 363.10666971 88.03948099 365.91728647 88.94165039 368.72875977 C90.08651076 372.29545965 91.24064037 375.85907767 92.39759159 379.42187119 C93.29810688 382.19878089 94.19340072 384.97735385 95.08724785 387.75641632 C95.51017291 389.06917354 95.93467389 390.38142432 96.36091805 391.6931076 C106.17097869 421.92348897 106.17097869 421.92348897 102.48632812 433.7590332 C99.37975807 439.61965472 94.37154646 442.21036552 88.25976562 444.2746582 C83.55711464 445.5183345 78.80954486 446.5233651 74.04101562 447.4777832 C70.47115438 448.06348135 70.47115438 448.06348135 68.25976562 449.2746582 C68.25976562 457.5246582 68.25976562 465.7746582 68.25976562 474.2746582 C123.69976562 474.2746582 179.13976562 474.2746582 236.25976562 474.2746582 C236.25976562 465.6946582 236.25976562 457.1146582 236.25976562 448.2746582 C232.29976562 446.6246582 228.33976562 444.9746582 224.25976562 443.2746582 C207.81770435 432.63567738 202.39275534 416.4951865 196.64257812 398.7355957 C196.12282425 397.15080133 195.60222562 395.56628379 195.08084106 393.98202515 C194.00203381 390.70183495 192.92678582 387.42051103 191.85412598 384.13830566 C189.61755817 377.30380845 187.33732133 370.48395162 185.05778885 363.66369247 C183.79639442 359.88805394 182.53827854 356.11132307 181.27978516 352.3347168 C180.76240547 350.78252663 180.2450103 349.23034162 179.7276001 347.67816162 C148.79193115 254.87115477 148.79193115 254.87115477 148.01180041 252.53076202 C147.49879264 250.99173907 146.98578445 249.45271627 146.47277582 247.91369361 C145.22048095 244.15681519 143.96819326 240.39993438 142.7159214 236.64304829 C140.45342269 229.85544902 138.1908595 223.06787126 135.92803872 216.28037935 C130.48803067 199.96267726 125.04974566 183.64440777 119.61807251 167.32392883 C116.92219866 159.22370427 114.22461463 151.12404933 111.52695656 143.02441883 C109.50545084 136.95469667 107.48451418 130.88478624 105.46484375 124.81445312 C97.03061503 99.4658103 88.58506443 74.12252114 79.9046936 48.85688782 C75.95396651 37.35054746 72.10744761 25.81770416 68.25976562 14.2746582 C43.83976562 14.2746582 19.41976562 14.2746582 -5.74023438 14.2746582 Z M38.25976562 346.2746582 C38.25976562 346.6046582 38.25976562 346.9346582 38.25976562 347.2746582 C40.56976563 347.2746582 42.87976563 347.2746582 45.25976562 347.2746582 C45.25976562 346.9446582 45.25976562 346.6146582 45.25976562 346.2746582 C42.94976562 346.2746582 40.63976562 346.2746582 38.25976562 346.2746582 Z " fill="#F7E1ED" transform="translate(334.740234375,225.725341796875)"/>
<path d="M0 0 C2.18796122 3.28194183 3.16933907 6.44332874 4.2578125 10.1796875 C4.47731567 10.91755493 4.69681885 11.65542236 4.92297363 12.41564941 C5.40488422 14.0375779 5.88449207 15.66019188 6.36212158 17.28338623 C7.14333431 19.93728444 7.93090161 22.58922302 8.72021484 25.24072266 C9.87364772 29.11574444 11.02525029 32.99130317 12.17578125 36.8671875 C15.29904139 47.37773911 18.45940097 57.8771352 21.625 68.375 C21.95394257 69.46628204 22.28288513 70.55756409 22.62179565 71.68191528 C29.66542938 95.0322453 36.88674698 118.32638687 44.13671875 141.61328125 C44.47680969 142.70743347 44.81690063 143.80158569 45.16729736 144.92889404 C46.63607346 149.64912604 48.11214655 154.36625173 49.62744141 159.07177734 C49.86638626 159.81864304 50.10533112 160.56550873 50.35151672 161.33500671 C50.96266697 163.24065802 51.5802484 165.14424372 52.19848633 167.04760742 C53 170 53 170 53 174 C16.37 174 -20.26 174 -58 174 C-47.41060302 139.87860972 -47.41060302 139.87860972 -41.95874023 123.29345703 C-41.54840546 122.04485901 -41.13807068 120.79626099 -40.71530151 119.50982666 C-40.40158159 118.55613064 -40.40158159 118.55613064 -40.0815239 117.58316803 C-39.42447507 115.58539742 -38.76822369 113.58736613 -38.11209106 111.58929443 C-30.75304227 89.1876063 -23.27566659 66.82604659 -15.73399734 44.48522186 C-14.94202924 42.13842127 -14.15096916 39.79131619 -13.3600769 37.44415283 C-12.11123967 33.73909546 -10.85917004 30.03514547 -9.60453796 26.33204651 C-9.14492078 24.97436858 -8.68616682 23.61639804 -8.2283783 22.25810242 C-5.69513837 14.74572552 -3.04995678 7.31939291 0 0 Z M-1 42 C-1.19441681 42.5957785 -1.38883362 43.19155701 -1.58914185 43.8053894 C-4.09909707 51.49591262 -6.6114045 59.18566585 -9.125 66.875 C-9.53061157 68.11584351 -9.93622314 69.35668701 -10.35412598 70.63513184 C-16.30706516 88.83945608 -22.30790342 107.02704508 -28.40673828 125.18310547 C-31.11896049 133.26712973 -33.79048316 141.36354005 -36.390625 149.484375 C-36.65276794 150.29328186 -36.91491089 151.10218872 -37.18499756 151.93560791 C-38.1760344 155.05645687 -39 157.70450462 -39 161 C-14.25 161 10.5 161 36 161 C34.09225731 154.00494349 32.14632012 147.09651587 29.93359375 140.203125 C29.65403336 139.3252533 29.37447296 138.44738159 29.08644104 137.54290771 C28.20560628 134.77791524 27.3217633 132.01389771 26.4375 129.25 C25.55010917 126.47168192 24.66339482 123.69315177 23.77784729 120.91424561 C23.23030102 119.19646501 22.68165173 117.47903547 22.13169861 115.76202393 C20.67432443 111.19489135 19.30310391 106.61416145 18 102 C17.47517611 100.27277392 16.9441763 98.54740921 16.40625 96.82421875 C10.74655434 78.60444478 5.34833562 60.31309733 0 42 C-0.33 42 -0.66 42 -1 42 Z " fill="#F8E0ED" transform="translate(342,339)"/>
<path d="M0 0 C2 3 2 3 2 9 C-100.3 9 -202.6 9 -308 9 C-307.67 8.01 -307.34 7.02 -307 6 C-205.69 6 -104.38 6 0 6 C0 4.02 0 2.04 0 0 Z " fill="#332E30" transform="translate(893,692)"/>
<path d="M0 0 C6.17934254 0.01001552 12.35869077 0.01388488 18.53803933 0.01834095 C32.51159831 0.02854668 46.4851338 0.04673336 60.4586792 0.06866455 C60.1286792 6.99866455 59.7986792 13.92866455 59.4586792 21.06866455 C59.1286792 21.06866455 58.7986792 21.06866455 58.4586792 21.06866455 C58.4586792 15.12866455 58.4586792 9.18866455 58.4586792 3.06866455 C1.3686792 3.06866455 -55.7213208 3.06866455 -114.5413208 3.06866455 C-114.8713208 9.00866455 -115.2013208 14.94866455 -115.5413208 21.06866455 C-115.8713208 21.06866455 -116.2013208 21.06866455 -116.5413208 21.06866455 C-116.5413208 14.46866455 -116.5413208 7.86866455 -116.5413208 1.06866455 C-77.68725278 0.23335129 -38.86345408 -0.06629237 0 0 Z " fill="#272324" transform="translate(683.5413208007813,238.93133544921875)"/>
<path d="M0 0 C1.485 0.99 1.485 0.99 3 2 C3.29890705 4.60411297 3.39998156 6.97165243 3.3742218 9.57858276 C3.37819621 10.36967851 3.38217061 11.16077425 3.38626546 11.9758426 C3.39593267 14.64146416 3.38404383 17.30656082 3.37231445 19.97216797 C3.374741 21.87728067 3.37845899 23.7823921 3.38337708 25.6875 C3.39280973 30.87350271 3.38334006 36.05931746 3.37004495 41.24530554 C3.35875564 46.66468693 3.36283608 52.08405872 3.36479187 57.50344849 C3.3656758 66.60796185 3.35457512 75.7124009 3.33618164 84.81689453 C3.31502522 95.34943372 3.31150087 105.88186388 3.3177436 116.41442001 C3.32343537 126.53464759 3.31779297 136.65483671 3.30657005 146.77505875 C3.3019203 151.08678014 3.30105186 155.39847804 3.3031559 159.71020126 C3.30503739 164.78760502 3.29694553 169.86489759 3.2810955 174.942276 C3.2768469 176.80793421 3.27600596 178.6736037 3.27878571 180.53926468 C3.28200003 183.08211579 3.27294455 185.62463316 3.26069641 188.16744995 C3.26447573 188.90927832 3.26825506 189.65110668 3.27214891 190.41541469 C3.24063543 194.10326394 3.04089176 196.86624321 1 200 C0.67 200 0.34 200 0 200 C-0.15408286 175.39981995 -0.30211065 150.79960988 -0.4429636 126.19935036 C-0.50850711 114.77659841 -0.57601932 103.35386448 -0.64819336 91.93115234 C-0.71110752 81.97317116 -0.77030011 72.01517594 -0.82505554 62.05714643 C-0.85416732 56.78625165 -0.8851211 51.51538243 -0.92053413 46.24452591 C-0.95383811 41.27881919 -0.98214869 36.31310851 -1.00670624 31.34735107 C-1.01656317 29.52935075 -1.02821085 27.71135906 -1.04183006 25.89338303 C-1.10597833 17.20269709 -1.12193375 8.63757494 0 0 Z " fill="#2C2729" transform="translate(697,449)"/>
<path d="M0 0 C24.42 0 48.84 0 74 0 C74.495 2.475 74.495 2.475 75 5 C74.34 5.99 73.68 6.98 73 8 C72.505 5.525 72.505 5.525 72 3 C36.36 3.495 36.36 3.495 0 4 C-0.33 5.98 -0.66 7.96 -1 10 C-1.49399097 11.52456109 -2.03557751 13.03472174 -2.62890625 14.5234375 C-2.94150391 15.31621094 -3.25410156 16.10898437 -3.57617188 16.92578125 C-4.0644043 18.13814453 -4.0644043 18.13814453 -4.5625 19.375 C-4.89185547 20.20644531 -5.22121094 21.03789062 -5.56054688 21.89453125 C-6.36844762 23.93184618 -7.1817011 25.96684442 -8 28 C-10.354248 18.58300799 -3.40828965 9.08877241 0 0 Z " fill="#810A3A" transform="translate(329,240)"/>
<path d="M0 0 C0.33 0 0.66 0 1 0 C1 70.62 1 141.24 1 214 C0.67 214 0.34 214 0 214 C-0.33 192.55 -0.66 171.1 -1 149 C-1.33 149 -1.66 149 -2 149 C-2 134.81 -2 120.62 -2 106 C-1.67 106 -1.34 106 -1 106 C-0.67 71.02 -0.34 36.04 0 0 Z " fill="#EFD6E2" transform="translate(701,302)"/>
<path d="M0 0 C51.81 0 103.62 0 157 0 C157 0.33 157 0.66 157 1 C107.005 1.495 107.005 1.495 56 2 C56 2.33 56 2.66 56 3 C47.75 3 39.5 3 31 3 C31 2.67 31 2.34 31 2 C20.77 1.67 10.54 1.34 0 1 C0 0.67 0 0.34 0 0 Z " fill="#EFD5E2" transform="translate(568,237)"/>
<path d="M0 0 C2.63205724 0.00536657 5.26394392 0.00001114 7.89599609 -0.00634766 C18.67729132 -0.01012051 29.38057239 0.3614987 40.13427734 1.13037109 C40.62927734 2.12037109 40.62927734 2.12037109 41.13427734 3.13037109 C16.38427734 3.13037109 -8.36572266 3.13037109 -33.86572266 3.13037109 C-34.19572266 2.47037109 -34.52572266 1.81037109 -34.86572266 1.13037109 C-23.23398277 0.29872064 -11.66063967 -0.02817103 0 0 Z " fill="#FBE7F3" transform="translate(335.86572265625,498.86962890625)"/>
<path d="M0 0 C40.59 0 81.18 0 123 0 C123 0.33 123 0.66 123 1 C115.08 1.495 115.08 1.495 107 2 C107 2.33 107 2.66 107 3 C101.06975197 3.97040422 95.93609666 3.89316269 90 3 C90 2.67 90 2.34 90 2 C64.59 1.67 39.18 1.34 13 1 C12.67 1.99 12.34 2.98 12 4 C10.35 3.67 8.7 3.34 7 3 C7 2.67 7 2.34 7 2 C4.69 1.67 2.38 1.34 0 1 C0 0.67 0 0.34 0 0 Z M93 1 C93 1.33 93 1.66 93 2 C95.31 2 97.62 2 100 2 C100 1.67 100 1.34 100 1 C97.69 1 95.38 1 93 1 Z " fill="#F6D8E5" transform="translate(280,571)"/>
<path d="M0 0 C24.75 0 49.5 0 75 0 C75 0.99 75 1.98 75 3 C70.46102295 3.02465392 65.92208457 3.04283789 61.38305664 3.05493164 C59.83780234 3.0599714 58.29255284 3.0668032 56.74731445 3.07543945 C54.53074971 3.08752076 52.31424782 3.09323173 50.09765625 3.09765625 C49.05545677 3.10539818 49.05545677 3.10539818 47.99220276 3.11329651 C46.3277067 3.11349277 44.66334501 3.06189129 43 3 C42.505 2.505 42.505 2.505 42 2 C38.89914779 1.83958807 35.81812421 1.74036598 32.71484375 1.68359375 C31.31861534 1.6524221 31.31861534 1.6524221 29.8941803 1.62062073 C26.90869818 1.55502069 23.92312516 1.49619198 20.9375 1.4375 C18.91861024 1.3943247 16.8997298 1.35071075 14.88085938 1.30664062 C9.92066703 1.19932871 4.96038291 1.09809112 0 1 C0 0.67 0 0.34 0 0 Z " fill="#EDD9E3" transform="translate(725,666)"/>
<path d="M0 0 C0.66 0.33 1.32 0.66 2 1 C2.05869332 4.49992803 2.09382709 7.9997272 2.125 11.5 C2.15013672 12.97339844 2.15013672 12.97339844 2.17578125 14.4765625 C2.21499874 20.35918665 1.70432638 25.36364503 0 31 C-0.33 31 -0.66 31 -1 31 C-1.02465622 26.74585377 -1.04283899 22.49174502 -1.05493164 18.23754883 C-1.05997101 16.78929927 -1.06680253 15.34105483 -1.07543945 13.89282227 C-1.08752247 11.81525412 -1.09323211 9.73775303 -1.09765625 7.66015625 C-1.10289307 6.40855713 -1.10812988 5.15695801 -1.11352539 3.86743164 C-1 1 -1 1 0 0 Z " fill="#FBE7F3" transform="translate(711,331)"/>
<path d="M0 0 C7.92 0 15.84 0 24 0 C24 0.99 24 1.98 24 3 C17.73 3 11.46 3 5 3 C5 2.34 5 1.68 5 1 C3.35 1 1.7 1 0 1 C0 0.67 0 0.34 0 0 Z " fill="#2D2A2B" transform="translate(712,668)"/>
<path d="M0 0 C2.7715695 2.7715695 3.25913277 5.93164013 4.1875 9.625 C4.37763672 10.31207031 4.56777344 10.99914062 4.76367188 11.70703125 C6.06392854 16.82169399 5.91655003 20.80427054 5 26 C4.67 26 4.34 26 4 26 C2.29549385 17.35954742 0.61358142 8.80171974 0 0 Z " fill="#FAE7F3" transform="translate(422,628)"/>
<path d="M0 0 C0.33 0 0.66 0 1 0 C0.0125055 22.59489033 0.0125055 22.59489033 -1 33 C-1.33 33 -1.66 33 -2 33 C-2.33 28.05 -2.66 23.1 -3 18 C-2.67 18 -2.34 18 -2 18 C-2 14.04 -2 10.08 -2 6 C-1.67 6 -1.34 6 -1 6 C-0.67 4.02 -0.34 2.04 0 0 Z " fill="#EFDBE5" transform="translate(912,650)"/>
<path d="M0 0 C-3 2 -3 2 -5.0625 2.9375 C-7.32261104 3.98251298 -7.32261104 3.98251298 -9 7 C-9.29991069 9.58885171 -9.50865225 12.09149082 -9.625 14.6875 C-9.66367187 15.38939453 -9.70234375 16.09128906 -9.7421875 16.81445312 C-9.8362334 18.54254655 -9.9191968 20.27123675 -10 22 C-10.33 22 -10.66 22 -11 22 C-12.8374412 9.02098355 -12.8374412 9.02098355 -10.94140625 4.4453125 C-7.76666902 0.47070642 -5.21228953 -0.86871492 0 0 Z " fill="#F9E8F3" transform="translate(402,663)"/>
<path d="M0 0 C0.33 0 0.66 0 1 0 C1 5.94 1 11.88 1 18 C6.94 18.99 6.94 18.99 13 20 C13 20.33 13 20.66 13 21 C8.00067249 21.0861953 4.02377899 20.8372965 -1 20 C-0.67 13.4 -0.34 6.8 0 0 Z " fill="#111011" transform="translate(568,242)"/>
<path d="M0 0 C4.22975941 2.81983961 4.83919243 6.1874853 6 11 C6.1875 14.5625 6.1875 14.5625 6 17 C3.97774806 13.9666221 3.00652476 11.38655511 1.875 7.9375 C1.52179687 6.87402344 1.16859375 5.81054688 0.8046875 4.71484375 C0 2 0 2 0 0 Z " fill="#FAE9F3" transform="translate(531,588)"/>
<path d="M0 0 C0.66 0 1.32 0 2 0 C3.26237731 2.52475462 3.09856404 4.31200466 3.0625 7.125 C3.05347656 8.03507813 3.04445313 8.94515625 3.03515625 9.8828125 C3.02355469 10.58148437 3.01195312 11.28015625 3 12 C2.01 12.33 1.02 12.66 0 13 C0 8.71 0 4.42 0 0 Z " fill="#272525" transform="translate(901,601)"/>
<path d="M0 0 C0.33 0.66 0.66 1.32 1 2 C1.66 2.33 2.32 2.66 3 3 C2.01 4.485 2.01 4.485 1 6 C0.34 6 -0.32 6 -1 6 C-1.99 9.465 -1.99 9.465 -3 13 C-3.93045933 10.44855176 -4.08564091 9.25993522 -3.22265625 6.640625 C-2.83980469 5.85171875 -2.45695313 5.0628125 -2.0625 4.25 C-1.68222656 3.45078125 -1.30195313 2.6515625 -0.91015625 1.828125 C-0.60980469 1.22484375 -0.30945313 0.6215625 0 0 Z " fill="#7A0C31" transform="translate(245,475)"/>
<path d="M0 0 C0.33 0 0.66 0 1 0 C0.67 6.93 0.34 13.86 0 21 C-0.33 21 -0.66 21 -1 21 C-1.33 16.05 -1.66 11.1 -2 6 C-1.67 6 -1.34 6 -1 6 C-0.67 4.02 -0.34 2.04 0 0 Z " fill="#EDDAE3" transform="translate(914,627)"/>
<path d="M0 0 C0.33 0.99 0.66 1.98 1 3 C0 4 0 4 -2.06640625 4.09765625 C-2.89011719 4.08605469 -3.71382812 4.07445312 -4.5625 4.0625 C-5.38878906 4.05347656 -6.21507812 4.04445313 -7.06640625 4.03515625 C-7.70449219 4.02355469 -8.34257813 4.01195312 -9 4 C-9 3.01 -9 2.02 -9 1 C-4.545 0.505 -4.545 0.505 0 0 Z " fill="#E7D7DF" transform="translate(744,261)"/>
<path d="M0 0 C0.99 0 1.98 0 3 0 C3 3.63 3 7.26 3 11 C1 10 1 10 0 7 C-0.03954234 4.66700175 -0.04401732 2.33291811 0 0 Z " fill="#E8D7E0" transform="translate(905,583)"/>
<path d="M0 0 C4.44703583 0.08319285 8.67081705 0.33281584 13.046875 1.23046875 C13.046875 1.56046875 13.046875 1.89046875 13.046875 2.23046875 C7.11662697 3.20087297 1.98297166 3.12363144 -3.953125 2.23046875 C-1.953125 0.23046875 -1.953125 0.23046875 0 0 Z " fill="#F3D2E0" transform="translate(373.953125,571.76953125)"/>
<path d="M0 0 C0.66 0 1.32 0 2 0 C0.79157144 4.43090471 -0.51668565 6.98112756 -4 10 C-3.29445932 6.33118845 -1.72264494 3.29549466 0 0 Z " fill="#FBEAF4" transform="translate(590,649)"/>
<path d="M0 0 C0.33 0 0.66 0 1 0 C0.88601335 1.62580966 0.75844341 3.25067157 0.625 4.875 C0.52058594 6.23238281 0.52058594 6.23238281 0.4140625 7.6171875 C0 10 0 10 -2 12 C-2.17835515 7.45194365 -1.99785435 4.1205746 0 0 Z " fill="#FBEEF6" transform="translate(594,636)"/>
<path d="M0 0 C0.99 0 1.98 0 3 0 C2.67 3.63 2.34 7.26 2 11 C1.67 11 1.34 11 1 11 C0.67 7.37 0.34 3.74 0 0 Z " fill="#EFDAE5" transform="translate(701,289)"/>
<path d="M0 0 C-3.03525486 2.02350324 -4.19426202 2.32124018 -7.6875 2.625 C-8.49574219 2.69976563 -9.30398438 2.77453125 -10.13671875 2.8515625 C-10.75160156 2.90054688 -11.36648438 2.94953125 -12 3 C-8.2391768 -0.7608232 -5.0273023 -0.25136512 0 0 Z " fill="#FAE9F4" transform="translate(416,660)"/>
<path d="M0 0 C3 2 3 2 3.51171875 4.1640625 C3.56972656 4.97617187 3.62773438 5.78828125 3.6875 6.625 C3.75324219 7.44226563 3.81898438 8.25953125 3.88671875 9.1015625 C3.92410156 9.72804688 3.96148438 10.35453125 4 11 C1.54176828 7.31265242 0.98757384 4.30300029 0 0 Z " fill="#FAE9F3" transform="translate(540,615)"/>
<path d="M0 0 C2.31 0 4.62 0 7 0 C7 0.33 7 0.66 7 1 C4.69 1 2.38 1 0 1 C0 0.67 0 0.34 0 0 Z " fill="#E3CBD7" transform="translate(680,224)"/>
<path d="M0 0 C0.33 0 0.66 0 1 0 C1 1.65 1 3.3 1 5 C0.67 5 0.34 5 0 5 C0 3.35 0 1.7 0 0 Z " fill="#D5C1CA" transform="translate(124,698)"/>
<path d="M0 0 C1.65 0 3.3 0 5 0 C5 0.33 5 0.66 5 1 C3.35 1 1.7 1 0 1 C0 0.67 0 0.34 0 0 Z " fill="#F3D1DF" transform="translate(310,573)"/>
<path d="M0 0 C1.65 0 3.3 0 5 0 C5 0.33 5 0.66 5 1 C3.35 1 1.7 1 0 1 C0 0.67 0 0.34 0 0 Z " fill="#E2CAD5" transform="translate(698,224)"/>
<path d="M0 0 C1.65 0 3.3 0 5 0 C5 0.33 5 0.66 5 1 C3.35 1 1.7 1 0 1 C0 0.67 0 0.34 0 0 Z " fill="#E5CBD7" transform="translate(690,224)"/>
<path d="M0 0 C1 4 1 4 1 4 Z " fill="#F4D4E2" transform="translate(592,625)"/>
<path d="M0 0 C4 1 4 1 4 1 Z " fill="#F2D2E0" transform="translate(351,573)"/>
<path d="M0 0 C4 1 4 1 4 1 Z " fill="#F3D2E0" transform="translate(335,573)"/>
<path d="M0 0 C4 1 4 1 4 1 Z " fill="#E3CAD4" transform="translate(720,224)"/>
<path d="M0 0 C4 1 4 1 4 1 Z " fill="#E2CAD5" transform="translate(712,224)"/>
<path d="M0 0 C4 1 4 1 4 1 Z " fill="#E3CBD6" transform="translate(648,224)"/>
<path d="M0 0 C4 1 4 1 4 1 Z " fill="#E1C9D5" transform="translate(616,224)"/>
<path d="" fill="#DAC3CE" transform="translate(0,0)"/>
<path d="M0 0 C0.99 0.495 0.99 0.495 2 1 C1.01 1.495 1.01 1.495 0 2 C0 1.34 0 0.68 0 0 Z " fill="#E9CFDB" transform="translate(848,619)"/>
<path d="M0 0 C3 1 3 1 3 1 Z " fill="#F3D1E0" transform="translate(395,573)"/>
<path d="M0 0 C3 1 3 1 3 1 Z " fill="#F2D3E1" transform="translate(391,573)"/>
<path d="M0 0 C3 1 3 1 3 1 Z " fill="#F3D2E0" transform="translate(359,573)"/>
<path d="M0 0 C3 1 3 1 3 1 Z " fill="#F2D1DF" transform="translate(347,573)"/>
<path d="M0 0 C3 1 3 1 3 1 Z " fill="#F3D2E1" transform="translate(343,573)"/>
<path d="M0 0 C3 1 3 1 3 1 Z " fill="#F4D1E0" transform="translate(298,573)"/>
<path d="" fill="#ECCBD9" transform="translate(0,0)"/>
<path d="" fill="#F4D3E2" transform="translate(0,0)"/>
<path d="" fill="#F5D2E0" transform="translate(0,0)"/>
<path d="M0 0 C3 1 3 1 3 1 Z " fill="#E5CCD5" transform="translate(653,224)"/>
<path d="M0 0 C2 1 2 1 2 1 Z " fill="#F4D4E3" transform="translate(417,656)"/>
<path d="" fill="#E2CBD6" transform="translate(0,0)"/>
<path d="" fill="#F3D3E1" transform="translate(0,0)"/>
<path d="" fill="#E7CFDA" transform="translate(0,0)"/>
<path d="" fill="#F2D3E1" transform="translate(0,0)"/>
<path d="" fill="#F2D0E1" transform="translate(0,0)"/>
<path d="" fill="#F3D2E0" transform="translate(0,0)"/>
<path d="" fill="#F3D3E0" transform="translate(0,0)"/>
<path d="" fill="#D7C3CC" transform="translate(0,0)"/>
<path d="" fill="#F5D2DF" transform="translate(0,0)"/>
<path d="M0 0 C2 1 2 1 2 1 Z " fill="#F3D2E0" transform="translate(367,573)"/>
<path d="M0 0 C2 1 2 1 2 1 Z " fill="#F2D0E0" transform="translate(356,573)"/>
<path d="M0 0 C2 1 2 1 2 1 Z " fill="#F4D1E0" transform="translate(340,573)"/>
<path d="M0 0 C2 1 2 1 2 1 Z " fill="#F4D1DF" transform="translate(327,573)"/>
<path d="M0 0 C2 1 2 1 2 1 Z " fill="#F3D0E0" transform="translate(319,573)"/>
<path d="M0 0 C2 1 2 1 2 1 Z " fill="#F3D3DF" transform="translate(306,573)"/>
<path d="M0 0 C2 1 2 1 2 1 Z " fill="#F2D1DF" transform="translate(303,573)"/>
<path d="M0 0 C2 1 2 1 2 1 Z " fill="#F4D0E0" transform="translate(295,573)"/>
<path d="M0 0 C2 1 2 1 2 1 Z " fill="#F5D3E0" transform="translate(279,573)"/>
<path d="" fill="#F3D5E0" transform="translate(0,0)"/>
<path d="" fill="#F3D5E1" transform="translate(0,0)"/>
<path d="" fill="#F3D5E2" transform="translate(0,0)"/>
<path d="" fill="#F5D4E0" transform="translate(0,0)"/>
<path d="" fill="#F5D2E1" transform="translate(0,0)"/>
<path d="M0 0 C2 1 2 1 2 1 Z " fill="#F5D3E1" transform="translate(368,479)"/>
<path d="" fill="#F5D3E1" transform="translate(0,0)"/>
<path d="" fill="#F0CEDC" transform="translate(0,0)"/>
<path d="" fill="#F4D3E2" transform="translate(0,0)"/>
<path d="" fill="#EFCDDB" transform="translate(0,0)"/>
<path d="" fill="#F4D2DF" transform="translate(0,0)"/>
<path d="" fill="#F3D1E0" transform="translate(0,0)"/>
<path d="" fill="#F4D3E1" transform="translate(0,0)"/>
<path d="" fill="#EBCCD9" transform="translate(0,0)"/>
<path d="" fill="#EECCDA" transform="translate(0,0)"/>
<path d="M0 0 C2 1 2 1 2 1 Z " fill="#DEC9D2" transform="translate(737,224)"/>
<path d="M0 0 C2 1 2 1 2 1 Z " fill="#E3CAD4" transform="translate(717,224)"/>
<path d="M0 0 C2 1 2 1 2 1 Z " fill="#E3C9D5" transform="translate(645,224)"/>
<path d="M0 0 C2 1 2 1 2 1 Z " fill="#E3C9D5" transform="translate(640,224)"/>
<path d="" fill="#787978" transform="translate(0,0)"/>
<path d="" fill="#E4CAD3" transform="translate(0,0)"/>
<path d="" fill="#D5C1C9" transform="translate(0,0)"/>
<path d="" fill="#E5C9D6" transform="translate(0,0)"/>
<path d="" fill="#E3C8D5" transform="translate(0,0)"/>
<path d="" fill="#E4CAD4" transform="translate(0,0)"/>
<path d="" fill="#E5C8D3" transform="translate(0,0)"/>
<path d="" fill="#E4C9D4" transform="translate(0,0)"/>
<path d="" fill="#E3C8D5" transform="translate(0,0)"/>
<path d="" fill="#E2C9D4" transform="translate(0,0)"/>
<path d="" fill="#E3C9D5" transform="translate(0,0)"/>
<path d="" fill="#E4CAD7" transform="translate(0,0)"/>
<path d="" fill="#E4C9D5" transform="translate(0,0)"/>
<path d="" fill="#E6CAD5" transform="translate(0,0)"/>
<path d="" fill="#E4C9D3" transform="translate(0,0)"/>
<path d="" fill="#E3C8D4" transform="translate(0,0)"/>
<path d="" fill="#E3C8D4" transform="translate(0,0)"/>
<path d="" fill="#E1C9D3" transform="translate(0,0)"/>
<path d="" fill="#DAC3CF" transform="translate(0,0)"/>
<path d="" fill="#D4C2C9" transform="translate(0,0)"/>
<path d="" fill="#DBC6CF" transform="translate(0,0)"/>
<path d="" fill="#D7C3CB" transform="translate(0,0)"/>
<path d="" fill="#DFCAD4" transform="translate(0,0)"/>
<path d="" fill="#DDC6D0" transform="translate(0,0)"/>
<path d="" fill="#DAC3CD" transform="translate(0,0)"/>
<path d="" fill="#D9C4CD" transform="translate(0,0)"/>
<path d="" fill="#EBCDDB" transform="translate(0,0)"/>
<path d="" fill="#EECFDE" transform="translate(0,0)"/>
<path d="" fill="#F1D2E1" transform="translate(0,0)"/>
<path d="" fill="#F1D5E1" transform="translate(0,0)"/>
<path d="" fill="#F1D1DF" transform="translate(0,0)"/>
<path d="" fill="#E7CEDB" transform="translate(0,0)"/>
<path d="" fill="#E9D0DC" transform="translate(0,0)"/>
<path d="" fill="#E8CBD7" transform="translate(0,0)"/>
<path d="" fill="#F3D3E1" transform="translate(0,0)"/>
<path d="" fill="#E9CCD7" transform="translate(0,0)"/>
<path d="" fill="#F1D3DF" transform="translate(0,0)"/>
<path d="" fill="#F1D1E0" transform="translate(0,0)"/>
<path d="" fill="#E2C9D6" transform="translate(0,0)"/>
<path d="" fill="#F5D3E2" transform="translate(0,0)"/>
<path d="" fill="#E9CBD7" transform="translate(0,0)"/>
<path d="" fill="#E9D0DB" transform="translate(0,0)"/>
<path d="" fill="#E3CAD5" transform="translate(0,0)"/>
<path d="" fill="#F1D1DF" transform="translate(0,0)"/>
<path d="" fill="#E9CAD6" transform="translate(0,0)"/>
<path d="" fill="#E9D1DB" transform="translate(0,0)"/>
<path d="" fill="#EBCBD7" transform="translate(0,0)"/>
<path d="" fill="#E6CDDB" transform="translate(0,0)"/>
<path d="" fill="#F0D1DE" transform="translate(0,0)"/>
<path d="" fill="#F2D3DE" transform="translate(0,0)"/>
<path d="" fill="#F2D3E1" transform="translate(0,0)"/>
<path d="" fill="#F4D6E2" transform="translate(0,0)"/>
<path d="" fill="#E1CBD6" transform="translate(0,0)"/>
<path d="" fill="#F4D3E3" transform="translate(0,0)"/>
<path d="" fill="#F5D4E2" transform="translate(0,0)"/>
<path d="" fill="#F4D3E2" transform="translate(0,0)"/>
<path d="" fill="#F2D1E1" transform="translate(0,0)"/>
<path d="" fill="#F4D3E4" transform="translate(0,0)"/>
<path d="" fill="#F2D1DF" transform="translate(0,0)"/>
<path d="" fill="#F4D1E0" transform="translate(0,0)"/>
<path d="" fill="#F4D2E1" transform="translate(0,0)"/>
<path d="" fill="#F3D1DF" transform="translate(0,0)"/>
<path d="" fill="#F2D0DF" transform="translate(0,0)"/>
<path d="" fill="#F5D2E0" transform="translate(0,0)"/>
<path d="" fill="#E8C9D9" transform="translate(0,0)"/>
<path d="" fill="#EACAD7" transform="translate(0,0)"/>
<path d="" fill="#E9CAD7" transform="translate(0,0)"/>
<path d="" fill="#F2D4DE" transform="translate(0,0)"/>
<path d="" fill="#F1CFDF" transform="translate(0,0)"/>
<path d="" fill="#E7C9D5" transform="translate(0,0)"/>
<path d="" fill="#EACBD6" transform="translate(0,0)"/>
<path d="" fill="#EFCDDD" transform="translate(0,0)"/>
<path d="" fill="#F3D6E1" transform="translate(0,0)"/>
<path d="" fill="#EACBD7" transform="translate(0,0)"/>
<path d="" fill="#F4D2E0" transform="translate(0,0)"/>
<path d="" fill="#F5D6E0" transform="translate(0,0)"/>
<path d="" fill="#F0CEDB" transform="translate(0,0)"/>
<path d="" fill="#EDCDD9" transform="translate(0,0)"/>
<path d="" fill="#F7D4E4" transform="translate(0,0)"/>
<path d="" fill="#F6D2E2" transform="translate(0,0)"/>
<path d="" fill="#EACBD7" transform="translate(0,0)"/>
<path d="" fill="#F3D1DF" transform="translate(0,0)"/>
<path d="" fill="#F5D3E1" transform="translate(0,0)"/>
<path d="" fill="#F4D1E0" transform="translate(0,0)"/>
<path d="" fill="#F6D1E0" transform="translate(0,0)"/>
<path d="" fill="#ECCADA" transform="translate(0,0)"/>
<path d="" fill="#EFCFDC" transform="translate(0,0)"/>
<path d="" fill="#ECCDD8" transform="translate(0,0)"/>
<path d="" fill="#F3D1E0" transform="translate(0,0)"/>
<path d="" fill="#F5D3E3" transform="translate(0,0)"/>
<path d="" fill="#F3D0DF" transform="translate(0,0)"/>
<path d="" fill="#E9CBD8" transform="translate(0,0)"/>
<path d="" fill="#F4D0DF" transform="translate(0,0)"/>
<path d="" fill="#F6D4E5" transform="translate(0,0)"/>
<path d="" fill="#EDCBD9" transform="translate(0,0)"/>
<path d="" fill="#EAC9D8" transform="translate(0,0)"/>
<path d="" fill="#F5D3E0" transform="translate(0,0)"/>
<path d="" fill="#F4D1E0" transform="translate(0,0)"/>
<path d="" fill="#F5D4E3" transform="translate(0,0)"/>
<path d="" fill="#F2D1E0" transform="translate(0,0)"/>
<path d="" fill="#EBCCD7" transform="translate(0,0)"/>
<path d="" fill="#EACBD7" transform="translate(0,0)"/>
<path d="" fill="#F3D2E1" transform="translate(0,0)"/>
<path d="" fill="#F4D3E0" transform="translate(0,0)"/>
<path d="" fill="#EBCDD9" transform="translate(0,0)"/>
<path d="" fill="#E9CCD7" transform="translate(0,0)"/>
<path d="" fill="#EACED8" transform="translate(0,0)"/>
<path d="" fill="#EFCFDB" transform="translate(0,0)"/>
<path d="" fill="#EECEDC" transform="translate(0,0)"/>
<path d="" fill="#EFCEDA" transform="translate(0,0)"/>
<path d="" fill="#EECEDC" transform="translate(0,0)"/>
<path d="" fill="#EAC9D9" transform="translate(0,0)"/>
<path d="" fill="#EFD2E0" transform="translate(0,0)"/>
<path d="" fill="#EFCFDC" transform="translate(0,0)"/>
<path d="" fill="#EFD4DD" transform="translate(0,0)"/>
<path d="" fill="#EDCCDA" transform="translate(0,0)"/>
<path d="" fill="#E8C9D6" transform="translate(0,0)"/>
<path d="" fill="#EDCDD9" transform="translate(0,0)"/>
<path d="" fill="#EBD0DD" transform="translate(0,0)"/>
<path d="" fill="#E6C7D6" transform="translate(0,0)"/>
<path d="" fill="#EAD0DD" transform="translate(0,0)"/>
<path d="" fill="#EBCCD9" transform="translate(0,0)"/>
<path d="" fill="#E8CAD5" transform="translate(0,0)"/>
<path d="" fill="#ECCBDA" transform="translate(0,0)"/>
<path d="" fill="#E8CCD6" transform="translate(0,0)"/>
<path d="" fill="#E8C8D6" transform="translate(0,0)"/>
<path d="" fill="#E6CCD6" transform="translate(0,0)"/>
<path d="" fill="#E3C7D2" transform="translate(0,0)"/>
<path d="" fill="#E9CBD8" transform="translate(0,0)"/>
<path d="" fill="#E3C7D3" transform="translate(0,0)"/>
<path d="" fill="#DCC5D1" transform="translate(0,0)"/>
<path d="" fill="#DEC7D1" transform="translate(0,0)"/>
<path d="" fill="#E1C6D2" transform="translate(0,0)"/>
<path d="" fill="#DEC7D2" transform="translate(0,0)"/>
<path d="" fill="#E2C9D3" transform="translate(0,0)"/>
<path d="" fill="#E3C8D2" transform="translate(0,0)"/>
<path d="" fill="#E7CCD9" transform="translate(0,0)"/>
<path d="" fill="#E3CAD5" transform="translate(0,0)"/>
<path d="" fill="#E4CBD6" transform="translate(0,0)"/>
<path d="" fill="#E5CBD6" transform="translate(0,0)"/>
<path d="" fill="#E5CBD6" transform="translate(0,0)"/>
<path d="" fill="#E6CCD7" transform="translate(0,0)"/>
<path d="" fill="#E5CCD7" transform="translate(0,0)"/>
<path d="" fill="#E4C8D7" transform="translate(0,0)"/>
<path d="" fill="#E4CAD2" transform="translate(0,0)"/>
<path d="" fill="#E5C9D4" transform="translate(0,0)"/>
<path d="" fill="#E6CAD5" transform="translate(0,0)"/>
<path d="" fill="#E9C9D7" transform="translate(0,0)"/>
<path d="" fill="#E9CCD7" transform="translate(0,0)"/>
<path d="" fill="#E8CCD8" transform="translate(0,0)"/>
<path d="" fill="#E8C9D4" transform="translate(0,0)"/>
<path d="" fill="#E7CAD6" transform="translate(0,0)"/>
<path d="" fill="#E5CAD7" transform="translate(0,0)"/>
<path d="" fill="#E5C8D3" transform="translate(0,0)"/>
</svg>
